<svg width="91" height="91" viewBox="0 0 91 91" fill="none" xmlns="http://www.w3.org/2000/svg">
<rect x="0.5" y="0.0700684" width="90" height="90" rx="45" fill="#1A77F8"/>
<path d="M53.3921 51.7563C54.3503 52.0869 52.4431 51.4257 53.3921 51.7563Z" fill="white"/>
<path d="M53.3916 51.7553C52.2468 51.3573 51.009 51.3318 49.8651 50.9357C49.5172 50.8173 48.8305 50.6724 48.6866 50.2744C48.5778 49.865 48.5236 49.443 48.5254 49.0194C48.5084 48.697 48.4999 48.3749 48.4999 48.0531C48.4999 47.8409 49.0463 47.3919 49.1611 47.197C49.5424 46.3639 49.7417 45.4591 49.7458 44.543C50.4835 44.7461 50.5764 43.3817 50.7039 42.9664C50.795 42.6777 51.3652 40.6941 50.4835 40.9627C50.6773 40.5727 50.798 40.1504 50.8397 39.7168C51.0599 38.6135 51.0287 37.4748 50.7486 36.3852C50.3841 35.3471 49.7027 34.4497 48.8006 33.8199C47.8985 33.1901 46.8212 32.8596 45.7211 32.8751C44.6017 32.7817 43.4811 33.0404 42.5158 33.615C41.5506 34.1897 40.789 35.0515 40.3376 36.0801C39.9877 37.1606 39.9062 38.31 40.0999 39.429C40.1341 39.9613 40.2695 40.4821 40.4988 40.9637C39.6791 40.7177 40.1172 42.4646 40.211 42.7697C40.3467 43.2023 40.4651 44.7534 41.2365 44.5421C41.2873 45.237 41.3979 45.9263 41.5671 46.6022C41.7075 47.0422 41.945 47.4449 42.262 47.7807C42.415 47.9502 42.4906 47.9629 42.4824 48.1879C42.5095 48.8643 42.4554 49.5416 42.3212 50.2052C42.1518 50.8491 40.7356 51.1205 40.1682 51.2399C38.6417 51.5532 37.2346 51.6952 35.9631 52.647C35.2456 53.185 34.6666 53.8862 34.274 54.6925C33.8814 55.4989 33.6864 56.3871 33.7054 57.2837H57.2742C57.2889 56.0715 56.9218 54.8854 56.225 53.8934C55.5281 52.9014 54.5369 52.1537 53.3916 51.7563V51.7553Z" fill="white"/>
<path d="M35.9365 50.7125L36.0722 50.6451C36.049 50.6547 36.0264 50.6659 36.0048 50.6788C35.9805 50.6866 35.9575 50.6979 35.9365 50.7125Z" fill="white"/>
<path d="M35.9365 50.7125C35.6487 50.8564 35.2989 51.0349 36.0039 50.6788L36.0713 50.6451C36.6483 50.408 37.2622 50.2733 37.8855 50.2471C38.1232 50.2216 38.2334 50.065 38.0549 49.8318C37.7161 49.3992 36.5458 49.3145 36.0512 49.1196C35.9245 49.0921 35.8122 49.0191 35.7356 48.9143C35.6591 48.8096 35.6236 48.6804 35.6359 48.5513C35.6277 48.3983 35.5448 47.7206 35.6614 47.6104C35.7461 47.5257 36.2807 47.5594 36.3991 47.543C36.8888 47.4896 37.37 47.3758 37.8318 47.2042C38.0263 47.1302 38.2112 47.0333 38.3828 46.9155C38.5859 46.7625 38.2298 46.39 38.1369 46.1869C37.8631 45.5448 37.7088 44.858 37.6815 44.1605C37.724 42.793 37.6814 41.4242 37.554 40.062C37.3987 39.1304 36.8978 38.2917 36.1512 37.7133C35.4046 37.1349 34.4674 36.8594 33.5266 36.9417C32.9045 36.9021 32.2827 37.0223 31.7203 37.2909C31.1578 37.5595 30.6735 37.9676 30.3134 38.4763C29.6734 39.7427 29.4312 41.1729 29.6185 42.5794C29.6693 43.3705 29.6522 44.1646 29.5675 44.9528C29.5196 45.291 29.4372 45.6233 29.3216 45.9447C29.2305 46.1906 28.7532 46.8008 28.9399 46.9283C29.7675 47.4101 30.7253 47.6206 31.6786 47.5303C31.7512 47.9758 31.7339 48.4313 31.6276 48.87C31.3899 49.4803 29.6185 49.6415 29.0839 49.82C28.342 50.0267 27.688 50.4702 27.2216 51.083C26.7551 51.6958 26.5017 52.4443 26.5 53.2144H33.2397C33.3499 53.2144 33.7734 52.4257 33.8927 52.2991C34.4761 51.6549 35.1678 51.118 35.9365 50.7125ZM61.8797 49.8136C61.193 49.5932 59.8706 49.5249 59.3787 48.932C59.1328 48.6351 59.2685 47.8809 59.294 47.5248C59.6828 47.5413 60.0721 47.5157 60.4553 47.4483C60.8018 47.4034 61.1429 47.3238 61.4735 47.2106C61.6284 47.1552 61.7786 47.0872 61.9225 47.0075C62.2531 46.8126 62.1047 46.7789 61.9307 46.4902C61.0063 44.9419 61.4216 42.9719 61.3797 41.2678C61.4332 40.5488 61.3061 39.8278 61.0099 39.1704C60.7137 38.5129 60.2579 37.94 59.6839 37.5036C59.0556 37.1627 58.3598 36.9647 57.6462 36.9236C56.9325 36.8825 56.2186 36.9994 55.5553 37.2659C51.9605 38.7068 54.0799 43.4719 52.8504 46.2015C52.6381 46.6569 52.333 46.8208 52.8677 47.0913C53.1668 47.239 53.4827 47.35 53.8085 47.4219C54.3034 47.5405 54.809 47.6086 55.3176 47.625C55.373 48.0159 55.373 48.4127 55.3176 48.8036C55.2266 49.2189 54.3158 49.3373 53.9779 49.4311C53.64 49.5249 53.0535 49.5495 52.885 49.9147C52.6309 50.4612 53.7247 50.3218 53.9952 50.3701C54.8573 50.5685 55.6561 50.9796 56.3186 51.5659C56.9289 51.9721 57.4087 52.5462 57.7002 53.219H64.5C64.4896 52.4446 64.2287 51.6944 63.7563 51.0807C63.284 50.467 62.6256 50.0228 61.8797 49.8145V49.8136Z" fill="white"/>
</svg>
