<svg width="91" height="91" viewBox="0 0 91 91" fill="none" xmlns="http://www.w3.org/2000/svg">
<rect x="0.5" y="0.0700684" width="90" height="90" rx="45" fill="#1A77F8"/>
<mask id="mask0_222_8463" style="mask-type:luminance" maskUnits="userSpaceOnUse" x="27" y="27" width="37" height="36">
<path d="M63.5 27.9072H27.5V62.2328H63.5V27.9072Z" fill="white"/>
</mask>
<g mask="url(#mask0_222_8463)">
<path d="M48.7008 60.042C48.4455 60.0533 48.3149 60.0642 48.1843 60.0642C44.1219 60.0642 40.0593 60.0642 35.9966 60.0642C35.3228 60.1017 34.6592 59.887 34.1352 59.4618C33.6112 59.0366 33.2643 58.4314 33.1622 57.7644C33.1526 57.6506 33.1517 57.5363 33.1597 57.4224C35.6655 56.7526 36.7777 55.5759 36.7057 53.6872C36.635 51.824 35.4554 50.6406 33.1677 50.1742V48.4216C33.7505 48.402 34.3204 48.2446 34.8307 47.9623C35.341 47.6799 35.7771 47.2807 36.1034 46.7974C36.5421 46.1475 36.7486 45.3686 36.6894 44.5867C36.5672 42.785 35.4026 41.6623 33.1635 41.2019V39.3349C34.3381 39.2512 35.4014 38.8209 36.0146 37.7861C36.4056 37.1461 36.631 36.4189 36.6706 35.67C36.7028 33.7863 35.5696 32.7038 33.1932 32.1173C33.0676 30.8435 34.151 29.6329 35.5634 29.4801C35.8014 29.4607 36.0404 29.454 36.2792 29.46C42.552 29.46 48.8256 29.4927 55.098 29.4374C56.8209 29.4223 58.4225 30.504 58.3786 32.7289C58.2894 37.2674 58.3497 41.8089 58.3484 46.349V47.0707C56.0796 45.74 53.7438 45.3398 51.2933 46.1079C49.5809 46.6327 48.1029 47.7337 47.1097 49.224C45.9522 50.8723 45.4735 52.9027 45.7727 54.8944C46.0611 56.9531 47.0792 58.6054 48.7029 60.0433M41.1681 36.3009C40.7256 35.8358 40.3271 35.3929 39.9022 34.9772C39.4321 34.5168 38.9151 34.4883 38.535 34.8688C38.1549 35.2493 38.1851 35.7613 38.643 36.2351C39.1956 36.8065 39.7611 37.3654 40.3262 37.9242C40.9927 38.5839 41.384 38.594 42.0425 37.9455C43.1033 36.899 44.1544 35.8421 45.2076 34.788C45.3077 34.6918 45.3991 34.587 45.4809 34.4749C45.6097 34.3034 45.6712 34.0905 45.6537 33.8768C45.6361 33.663 45.5409 33.463 45.3859 33.3147C45.2309 33.1664 45.0269 33.0801 44.8125 33.072C44.5982 33.064 44.3883 33.1347 44.2226 33.271C44.0681 33.3956 43.9228 33.5312 43.7877 33.6766C42.9329 34.531 42.0802 35.3879 41.1697 36.3004M41.1697 43.5984C40.7306 43.1329 40.3463 42.7034 39.9382 42.3007C39.4359 41.803 38.9222 41.7657 38.5313 42.1684C38.1403 42.5711 38.1964 43.0701 38.6945 43.5796C39.2642 44.1614 39.8381 44.7403 40.4221 45.308C40.9742 45.845 41.4159 45.8492 41.9709 45.3105C42.6976 44.6047 43.4072 43.8809 44.123 43.1635C44.5788 42.7499 45.0066 42.3065 45.4035 41.8361C45.4926 41.7031 45.5527 41.5528 45.5798 41.3951C45.6069 41.2374 45.6005 41.0757 45.5609 40.9206C45.4984 40.7833 45.4034 40.6634 45.284 40.5713C45.1647 40.4791 45.0246 40.4175 44.8761 40.3919C44.5293 40.4251 44.2047 40.5775 43.9576 40.823C43.0367 41.6958 42.1539 42.6122 41.1701 43.5996M41.1827 50.8093C40.7189 50.3124 40.3271 49.8624 39.9026 49.4459C39.4212 48.9741 38.9206 48.9436 38.5401 49.3249C38.1595 49.7062 38.1876 50.2136 38.6472 50.6937C39.2249 51.2965 39.8155 51.8868 40.4125 52.4703C40.9834 53.0279 41.4171 53.0262 42.0032 52.4494C43.0915 51.3748 44.1707 50.2877 45.2511 49.2035C45.3509 49.1068 45.4398 48.9994 45.5161 48.8833C45.6362 48.7208 45.6917 48.5194 45.6718 48.3183C45.6518 48.1172 45.5578 47.9306 45.4081 47.7949C45.2757 47.6414 45.09 47.544 44.8885 47.5222C44.687 47.5004 44.4847 47.556 44.3227 47.6777C44.1598 47.791 44.0094 47.9212 43.8739 48.0662C42.9974 48.9553 42.125 49.8486 41.1819 50.8109M51.0609 34.8475C50.2656 34.8475 49.4702 34.8445 48.6749 34.8475C47.9122 34.8508 47.4932 35.1627 47.4881 35.7223C47.4831 36.2896 47.9067 36.6316 48.6477 36.6341C50.278 36.6394 51.9083 36.6394 53.5387 36.6341C54.2285 36.6316 54.653 36.2711 54.6379 35.7274C54.6233 35.1978 54.2256 34.86 53.5659 34.8483C52.7307 34.8362 51.8956 34.8454 51.0605 34.8454M51.1229 42.137C50.2878 42.137 49.4527 42.1324 48.6175 42.137C47.9059 42.1421 47.4944 42.4652 47.4844 43.0082C47.4739 43.5691 47.9076 43.9207 48.6427 43.9228C50.2733 43.9284 51.9037 43.9284 53.5341 43.9228C54.2294 43.9203 54.645 43.5695 54.6346 43.0195C54.6245 42.4891 54.2289 42.1492 53.568 42.1404C52.7529 42.1278 51.9375 42.1375 51.1225 42.1375" fill="white"/>
<path d="M53.7382 60.0634C52.095 60.0294 50.5306 59.3526 49.3809 58.178C48.2312 57.0035 47.5878 55.4251 47.5889 53.7815C47.59 52.1379 48.2354 50.5603 49.3867 49.3873C50.538 48.2143 52.1033 47.5395 53.7466 47.5078C54.5816 47.4916 55.4114 47.6422 56.1875 47.9507C56.9636 48.2592 57.6703 48.7195 58.2663 49.3045C58.8623 49.8895 59.3356 50.5875 59.6586 51.3577C59.9815 52.1278 60.1476 52.9547 60.147 53.7898C60.1464 54.625 59.9793 55.4516 59.6553 56.2214C59.3314 56.9911 58.8571 57.6885 58.2603 58.2727C57.6635 58.8569 56.9562 59.3162 56.1797 59.6237C55.4032 59.9312 54.5732 60.0806 53.7382 60.0634ZM54.6391 52.9015C54.6391 52.5624 54.6508 52.3066 54.6366 52.0526C54.6414 51.9328 54.6226 51.8133 54.5811 51.7009C54.5397 51.5884 54.4765 51.4853 54.3952 51.3973C54.3138 51.3093 54.2159 51.2382 54.1071 51.1881C53.9982 51.138 53.8806 51.1098 53.7608 51.1053C53.6408 51.1056 53.5221 51.1299 53.4116 51.1768C53.3011 51.2236 53.2011 51.292 53.1174 51.378C53.0336 51.4641 52.968 51.5659 52.9241 51.6776C52.8803 51.7894 52.8592 51.9087 52.8621 52.0287C52.834 52.624 52.8364 53.2203 52.8692 53.8153C52.8632 54.0297 52.9419 54.2377 53.0883 54.3945C53.2347 54.5512 53.4369 54.6439 53.6512 54.6525C54.3048 54.6993 54.9609 54.7018 55.6148 54.66C55.7261 54.6588 55.8359 54.6348 55.9375 54.5895C56.0391 54.5442 56.1303 54.4786 56.2056 54.3967C56.2809 54.3149 56.3387 54.2184 56.3753 54.1134C56.4119 54.0084 56.4266 53.8969 56.4186 53.786C56.4267 53.5626 56.346 53.345 56.1941 53.181C56.0422 53.0169 55.8315 52.9197 55.6082 52.9107C55.2857 52.8879 54.9622 52.8855 54.6395 52.9036" fill="white"/>
<path d="M32.2526 37.5549C31.8374 37.5328 31.4154 37.5441 31.0073 37.4813C30.5923 37.4108 30.2162 37.1942 29.947 36.8706C29.6777 36.547 29.5331 36.1378 29.5393 35.7169C29.5367 35.2955 29.6887 34.8878 29.9664 34.5709C30.244 34.2539 30.6282 34.0497 31.0462 33.9968C31.8164 33.9294 32.591 33.9275 33.3615 33.9914C33.8023 34.0342 34.2098 34.245 34.4993 34.5802C34.7889 34.9153 34.9383 35.349 34.9166 35.7914C34.9038 36.2318 34.7273 36.6517 34.4215 36.969C34.1158 37.2863 33.7028 37.4784 33.2632 37.5076C32.9283 37.5365 32.5892 37.5123 32.2518 37.5123C32.2518 37.5273 32.2518 37.5424 32.2518 37.5575" fill="white"/>
<path d="M32.271 43.0616C32.6476 43.0421 33.025 43.0445 33.4013 43.0688C33.8172 43.1267 34.1986 43.3316 34.4766 43.6464C34.7545 43.9612 34.9106 44.3651 34.9166 44.785C34.9354 45.2067 34.7971 45.6204 34.5286 45.946C34.2601 46.2717 33.8803 46.4863 33.4628 46.5482C32.6538 46.6231 31.8397 46.6251 31.0303 46.5541C30.6119 46.5004 30.2282 46.2938 29.9531 45.974C29.678 45.6542 29.531 45.244 29.5405 44.8223C29.5374 44.4118 29.678 44.0132 29.9379 43.6955C30.1979 43.3779 30.5608 43.1612 30.9637 43.083C31.3966 43.0318 31.8318 43.0039 32.2677 42.9993C32.2677 43.0198 32.2677 43.0411 32.2677 43.0612" fill="white"/>
<path d="M32.2008 55.6039C31.8052 55.5825 31.4054 55.5926 31.0149 55.5331C30.6009 55.4617 30.2255 55.246 29.9555 54.9241C29.6856 54.6022 29.5384 54.1951 29.5401 53.775C29.5361 53.3534 29.6868 52.945 29.9637 52.6271C30.2406 52.3092 30.6244 52.1039 31.0425 52.0499C31.8323 51.9816 32.6266 51.9816 33.4164 52.0499C33.845 52.1034 34.2377 52.3165 34.5161 52.6467C34.7945 52.977 34.9381 53.4 34.9183 53.8315C34.9092 54.262 34.7428 54.6744 34.4504 54.9906C34.158 55.3068 33.76 55.505 33.3314 55.5478C32.958 55.5846 32.5779 55.554 32.2012 55.554C32.2012 55.5712 32.2012 55.5879 32.2012 55.6047" fill="white"/>
</g>
</svg>
