<svg width="91" height="91" viewBox="0 0 91 91" fill="none" xmlns="http://www.w3.org/2000/svg">
<rect x="0.5" y="0.0700684" width="90" height="90" rx="45" fill="#1A77F8"/>
<g clip-path="url(#clip0_222_8461)">
<path d="M40.7564 47.637C39.8457 45.9877 38.8783 44.4107 38.1006 42.7439C37.7673 42.001 37.6656 41.1748 37.8089 40.3732C37.9415 39.8636 37.9236 39.3266 37.7574 38.827C37.3628 37.7168 37.22 36.5328 37.3394 35.3606C37.4589 34.1884 37.8375 33.0575 38.448 32.0497C39.6277 30.0237 41.8928 29.2352 44.5202 29.9712C44.8306 30.0781 45.1592 30.1217 45.4867 30.0996C45.8142 30.0775 46.134 29.99 46.4271 29.8423C48.4541 28.8672 51.2851 29.9969 52.5246 32.1616C53.7363 34.2798 53.6162 36.4573 52.937 38.7002C52.8856 39.1888 52.8904 39.6816 52.9514 40.1691C52.9127 41.0076 53.0313 41.925 52.7293 42.6646C52.0355 44.3653 51.129 45.9743 50.2905 47.6571C52.2603 48.3884 54.3373 49.1481 56.4055 49.932C57.2698 50.2592 58.1037 50.6685 58.9716 50.9844C59.3417 51.095 59.674 51.3057 59.9318 51.5933C60.1896 51.8809 60.363 52.2341 60.4327 52.614C60.9388 54.9956 61.4635 57.3736 61.9639 59.7567C62.1386 60.586 61.6031 60.6571 60.9723 60.6566C54.8272 60.6501 48.6821 60.6501 42.537 60.6566C38.3992 60.6566 34.2613 60.6552 30.1235 60.6525C28.9928 60.6525 28.8557 60.5087 29.0989 59.4094C29.5983 57.153 30.1354 54.9049 30.6502 52.6522C30.7236 52.2896 30.8929 51.9533 31.1406 51.6786C31.3883 51.4038 31.7052 51.2005 32.0583 51.09C34.6774 50.0861 37.2786 49.0362 39.8859 48.0019C40.1951 47.8792 40.5013 47.7442 40.7548 47.6411M40.8605 35.8579C40.4997 36.9402 40.1482 38.0225 39.7643 39.0904C39.6519 39.4032 39.4849 39.6935 39.271 39.948C38.9654 40.2583 38.7802 40.6673 38.7487 41.1017C38.7171 41.5361 38.8413 41.9675 39.0989 42.3187C39.347 42.7017 39.5673 43.102 39.7581 43.5165C40.5652 45.2688 41.4918 46.9391 43.0395 48.1549C44.7434 49.4949 46.5591 49.498 48.166 48.0328C48.9726 47.2736 49.6638 46.4006 50.2178 45.4414C50.8659 44.3287 51.4061 43.1566 51.8309 41.941C51.9607 41.3883 51.9133 40.8088 51.6954 40.2845C51.3993 39.6359 51.0683 39.0038 50.7038 38.391C50.4152 37.7921 50.1884 37.1634 49.9307 36.5382C46.7055 38.2879 43.7415 37.9813 40.86 35.8569M47.9413 60.0417C47.3966 57.5911 46.8714 55.1971 46.3184 52.814C46.2743 52.7273 46.2108 52.6519 46.1329 52.5936C46.0549 52.5353 45.9646 52.4958 45.869 52.478C45.182 52.3666 44.6985 52.4321 44.529 53.3474C44.1167 55.5729 43.5611 57.7715 43.0493 60.0417H47.9413ZM44.0548 49.5934C43.4364 49.197 42.9313 48.86 42.4128 48.5446C41.9382 48.2565 41.3377 48.4858 41.4186 48.944C41.6062 50.0036 41.8825 51.0473 42.1701 52.3007L44.0548 49.5934ZM48.8417 52.2811C49.1077 51.0596 49.3571 50.0309 49.5452 48.9904C49.6297 48.5157 49.07 48.2523 48.5923 48.5337C48.0429 48.8569 47.5151 49.2156 46.8915 49.613L48.8391 52.2816M45.4623 52.06C45.9731 51.5544 46.5106 51.2704 46.5704 50.9081C46.6761 50.2685 46.1241 49.9371 45.5165 49.9258C44.9088 49.9145 44.3507 50.2304 44.429 50.8726C44.4733 51.2333 44.9882 51.5426 45.4629 52.0579" fill="white"/>
</g>
<defs>
<clipPath id="clip0_222_8461">
<rect width="33" height="31.1688" fill="white" transform="translate(29 29.4857)"/>
</clipPath>
</defs>
</svg>
