<svg width="91" height="91" viewBox="0 0 91 91" fill="none" xmlns="http://www.w3.org/2000/svg">
<rect x="0.5" y="0.0700684" width="90" height="90" rx="45" fill="#1A77F8"/>
<path d="M36.0151 60.4715C33.4876 60.408 30.9864 60.2368 28.5539 59.5065C27.444 59.1723 27.4317 59.1682 27.7684 58.0542C28.028 57.197 28.311 56.3479 28.6063 55.5046C28.7416 55.076 28.9702 54.6826 29.2757 54.353C29.5812 54.0233 29.9561 53.7655 30.3732 53.5981C31.6597 53.0656 32.9048 52.4123 34.2232 51.9663C35.0333 51.6752 35.8981 51.568 36.7547 51.6525C37.6114 51.7371 38.4385 52.0111 39.1762 52.4549C39.4971 52.6438 39.8482 52.776 40.214 52.8457C42.2942 53.2114 43.5573 54.4664 44.1496 56.4348C44.3814 57.2011 44.5141 57.996 44.7074 58.7734C44.7832 59.0814 44.673 59.226 44.3798 59.2923C43.1138 59.579 41.8621 59.9632 40.581 60.1373C39.0713 60.3429 37.5379 60.3679 36.0151 60.4715Z" fill="white"/>
<path d="M46.7879 51.506C46.3943 48.7754 48.4594 45.9043 51.3088 45.2019C52.5829 44.8869 52.5784 44.8898 53.1776 46.073C53.457 46.6415 53.7771 47.1891 54.1356 47.7113C54.3359 46.9659 55.1518 46.3188 54.2667 45.4238H55.8337C55.0592 46.2078 55.6985 46.9134 56.0282 47.6957C56.1526 47.5279 56.2683 47.3537 56.3748 47.1739C56.7253 46.5186 57.0579 45.8486 57.4171 45.1957C57.4847 45.0728 57.6682 44.9016 57.7624 44.9225C59.7627 45.3477 61.6275 46.0018 62.5925 48.0353C63.0451 49.1391 63.3016 50.3135 63.3502 51.5056L46.7879 51.506Z" fill="white"/>
<path d="M67.4251 52.9259C66.4396 53.7487 65.5615 54.4872 64.6768 55.2195C63.6427 56.0755 62.6159 56.9397 61.5571 57.7666C61.2854 57.9841 60.9534 58.1128 60.6061 58.1352C55.978 58.1615 51.3518 58.1561 46.7249 58.1574C46.5979 58.1574 46.4693 58.1369 46.3178 58.123C45.8927 56.1836 45.3389 54.314 43.6216 52.9272L67.4251 52.9259ZM49.2618 56.7071C50.8964 56.7071 52.4106 56.7099 53.926 56.7017C54.0379 56.6947 54.1446 56.6516 54.2299 56.5789C55.2735 55.715 56.3138 54.8463 57.3508 53.9728C57.3648 53.9605 57.3439 53.9052 57.3357 53.8405C57.2743 53.815 57.2099 53.7977 57.144 53.7893C55.9153 53.777 54.6894 53.7483 53.464 53.7741C53.1577 53.8007 52.865 53.9124 52.6191 54.0969C51.8462 54.6477 51.1004 55.2359 50.3508 55.8171C50.0068 56.0845 49.6759 56.3675 49.2618 56.7071Z" fill="white"/>
<path d="M36.2245 42.1334C36.1557 41.7537 36.0906 41.3728 36.0131 40.996C36.0065 40.9042 35.9808 40.8147 35.9376 40.7334C35.8945 40.6521 35.8348 40.5807 35.7624 40.5238C35.69 40.4669 35.6066 40.4257 35.5174 40.4029C35.4282 40.3801 35.3352 40.3763 35.2444 40.3915C33.3435 40.4234 31.4415 40.4079 29.5407 40.4054C28.6396 40.4054 28.5786 40.3448 28.5827 39.4569C28.5938 37.5188 28.6236 35.5807 28.6171 33.6409C28.6142 33.1331 28.8104 32.9205 29.2949 32.9176C30.823 32.9078 32.3512 32.8926 33.8793 32.8861C35.108 32.8804 36.3367 32.8861 37.6473 32.8861V33.9948C37.6473 35.0757 37.6379 36.1578 37.6559 37.2386C37.6768 38.4092 37.8808 38.6721 39.0403 38.7376C39.7939 38.7786 39.6436 39.3037 39.7058 39.7206C39.7775 40.1924 39.481 40.335 39.0628 40.3444C38.6553 40.3538 38.2498 40.3956 37.8439 40.4107C37.5706 40.405 37.3036 40.4931 37.0875 40.6605C36.8713 40.8278 36.7191 41.0642 36.6562 41.3302C36.5665 41.6104 36.4514 41.8823 36.3482 42.1584L36.2245 42.1334Z" fill="white"/>
<path d="M57.5618 40.1263C57.2305 41.7179 56.8967 43.2198 55.4443 44.1463C55.2377 44.3074 54.9838 44.396 54.7219 44.3984C54.4599 44.4009 54.2044 44.317 53.9949 44.1598C53.041 43.4971 52.2128 42.7521 52.0699 41.4902C51.9823 41.209 51.8727 40.9351 51.7422 40.6711C51.6234 40.2615 51.5227 39.8482 51.8802 39.4714C51.9609 39.3294 51.9979 39.1667 51.9867 39.0037C52.0023 38.6528 52.0873 38.3085 52.2371 37.9907C52.3868 37.673 52.5981 37.3882 52.8588 37.1528C53.1196 36.9174 53.4245 36.7362 53.7558 36.6196C54.0872 36.5031 54.4384 36.4535 54.789 36.4738C56.2053 36.4803 57.1621 37.4883 57.2751 39.0344C57.3353 39.4068 57.4313 39.7725 57.5618 40.1263Z" fill="white"/>
<path d="M33.1206 47.1624C33.3308 46.3252 33.6002 45.504 33.9266 44.7049C34.396 43.74 35.6059 43.2833 36.7117 43.482C37.2144 43.5606 37.6783 43.799 38.0349 44.162C38.3914 44.5249 38.6215 44.9931 38.6912 45.4971C38.7784 45.9066 38.8927 46.3129 38.9865 46.7229C39.0269 46.848 39.0387 46.9805 39.0209 47.1108C38.8704 47.963 38.6439 48.8001 38.3443 49.612C37.94 50.5065 37.7852 50.4529 36.7707 50.3533C36.1588 50.3407 35.5467 50.3638 34.9375 50.4226C34.7786 50.4254 34.5385 50.3816 34.4722 50.2747C34.1751 49.7941 33.9032 49.2984 33.6576 48.7896C33.5383 48.5215 33.4386 48.2452 33.3594 47.9627C33.2726 47.6993 33.2009 47.4331 33.1206 47.1624Z" fill="white"/>
<path d="M48.7341 40.0293C48.1849 39.5087 47.6783 39.0463 47.1909 38.5647C46.9973 38.3786 46.7659 38.2366 46.5124 38.1482C46.259 38.0599 45.9894 38.0273 45.7221 38.0527C43.6333 38.0969 41.5445 38.0883 39.4557 38.0801C38.8495 38.0773 38.6468 37.8303 38.6452 37.1263C38.6411 35.4118 38.6591 33.6961 38.6615 31.98C38.6615 31.4955 38.6091 31.0097 38.6325 30.5276C38.6656 29.8609 38.8729 29.6729 39.5393 29.6717C43.0441 29.6676 46.5493 29.6676 50.055 29.6717C50.8238 29.6717 51.0974 29.9354 51.0957 30.721C51.0957 32.0435 51.0515 33.366 51.0433 34.6881C51.0376 35.4888 51.0752 36.2895 51.0736 37.0886C51.0736 37.852 50.8279 38.081 50.0603 38.0851C48.8726 38.0933 48.8726 38.0933 48.7907 39.2597C48.7759 39.4981 48.7562 39.7352 48.7341 40.0293ZM39.3197 37.3568C39.3916 37.3807 39.4655 37.3979 39.5405 37.408C43.0276 37.4121 46.5159 37.408 50.0038 37.422C50.404 37.422 50.3986 37.1971 50.3986 36.9182C50.3958 34.9039 50.3863 32.8888 50.4056 30.8745C50.4097 30.4523 50.2774 30.3388 49.8633 30.3421C46.5433 30.3585 43.2238 30.3503 39.9021 30.3532C39.7076 30.3532 39.5114 30.3765 39.3197 30.3904V37.3568Z" fill="white"/>
</svg>
