<svg width="44" height="44" viewBox="0 0 44 44" fill="none" xmlns="http://www.w3.org/2000/svg">
<circle cx="22" cy="22" r="22" fill="#FFC107"/>
<g clip-path="url(#clip0_258_6320)">
<path d="M31.8697 21.6509C31.8961 22.4136 31.503 22.9562 31.0044 23.452C28.03 26.4117 25.0732 29.392 22.0841 32.3341C20.4532 33.9386 19.2828 33.7949 17.3673 31.856C15.9886 30.4597 16.0268 29.3656 17.5345 27.8432C19.183 26.18 20.7993 24.4786 22.5241 22.9005C23.5009 22.0058 23.6065 21.4162 22.5505 20.4864C20.723 18.876 19.0129 17.1277 17.2705 15.4176C15.8038 13.9744 15.7657 12.9125 17.0886 11.5309C18.9132 9.6213 20.1921 9.3925 21.7028 10.821C24.8209 13.772 27.898 16.7698 30.9956 19.7413C31.55 20.2722 31.9313 20.8648 31.8726 21.6509H31.8697Z" fill="#F6FBFE"/>
</g>
<defs>
<clipPath id="clip0_258_6320">
<rect width="15.7461" height="23.5341" fill="white" transform="translate(16.1328 9.8999)"/>
</clipPath>
</defs>
</svg>
