<svg width="55" height="55" viewBox="0 0 55 55" fill="none" xmlns="http://www.w3.org/2000/svg">
<circle cx="27.735" cy="27.2269" r="26.8307" fill="#1A77F8"/>
<g clip-path="url(#clip0_258_5888)">
<path d="M39.7736 26.8012C39.8058 27.7314 39.3265 28.3932 38.7183 28.9978C35.0908 32.6074 31.4847 36.2421 27.8393 39.8302C25.8503 41.7871 24.4229 41.6118 22.0868 39.2471C20.4054 37.5443 20.4519 36.2099 22.2907 34.3532C24.3013 32.3248 26.2724 30.2499 28.3759 28.3252C29.5672 27.2341 29.696 26.515 28.4081 25.381C26.1794 23.417 24.0938 21.2848 21.9688 19.1992C20.18 17.4391 20.1335 16.1441 21.747 14.4591C23.9721 12.1302 25.5319 11.8511 27.3743 13.5933C31.1771 17.1922 34.9298 20.8484 38.7076 24.4723C39.3837 25.1198 39.8488 25.8425 39.7772 26.8012H39.7736Z" fill="#F6FBFE"/>
</g>
<defs>
<clipPath id="clip0_258_5888">
<rect width="19.2037" height="28.7017" fill="white" transform="translate(20.5811 12.47)"/>
</clipPath>
</defs>
</svg>
