<svg width="45" height="44" viewBox="0 0 45 44" fill="none" xmlns="http://www.w3.org/2000/svg">
<circle cx="22.7686" cy="22" r="22" fill="#73ED37"/>
<g clip-path="url(#clip0_258_6201)">
<path d="M32.6383 21.6509C32.6647 22.4136 32.2716 22.9562 31.7729 23.452C28.7985 26.4117 25.8417 29.392 22.8527 32.3341C21.2217 33.9386 20.0513 33.7949 18.1359 31.856C16.7572 30.4597 16.7953 29.3656 18.3031 27.8432C19.9516 26.18 21.5679 24.4786 23.2927 22.9005C24.2695 22.0058 24.3751 21.4162 23.3191 20.4864C21.4916 18.876 19.7815 17.1277 18.0391 15.4176C16.5724 13.9744 16.5343 12.9125 17.8572 11.5309C19.6817 9.6213 20.9607 9.3925 22.4713 10.821C25.5895 13.772 28.6665 16.7698 31.7641 19.7413C32.3185 20.2722 32.6999 20.8648 32.6412 21.6509H32.6383Z" fill="#F6FBFE"/>
</g>
<defs>
<clipPath id="clip0_258_6201">
<rect width="15.7461" height="23.5341" fill="white" transform="translate(16.9014 9.8999)"/>
</clipPath>
</defs>
</svg>
