<svg width="228" height="202" viewBox="0 0 228 202" fill="none" xmlns="http://www.w3.org/2000/svg">
<rect x="0.3" y="0.3" width="227.4" height="201.4" fill="white"/>
<rect x="0.3" y="0.3" width="227.4" height="201.4" stroke="#E9EDF2" stroke-width="0.6"/>
<circle cx="114" cy="101" r="60" fill="#FFC107"/>
<g clip-path="url(#clip0_212_6921)">
<path d="M140.919 100.048C140.991 102.128 139.919 103.608 138.559 104.96C130.447 113.032 122.383 121.16 114.231 129.184C109.783 133.56 106.591 133.168 101.367 127.88C97.6075 124.072 97.7115 121.088 101.823 116.936C106.319 112.4 110.727 107.76 115.431 103.456C118.095 101.016 118.383 99.408 115.503 96.872C110.519 92.48 105.855 87.712 101.103 83.048C97.1035 79.112 96.9995 76.216 100.607 72.448C105.583 67.24 109.071 66.616 113.191 70.512C121.695 78.56 130.087 86.736 138.535 94.84C140.047 96.288 141.087 97.904 140.927 100.048H140.919Z" fill="#F6FBFE"/>
</g>
<defs>
<clipPath id="clip0_212_6921">
<rect width="42.944" height="64.184" fill="white" transform="translate(98 68)"/>
</clipPath>
</defs>
</svg>
