<svg width="25" height="24" viewBox="0 0 25 24" fill="none" xmlns="http://www.w3.org/2000/svg">
<path fill-rule="evenodd" clip-rule="evenodd" d="M5.69716 1.02883C10.0983 0.557528 14.5398 0.557528 18.941 1.02883C21.3778 1.2927 23.3437 3.14665 23.6297 5.5091C24.1517 9.82166 24.1517 14.1783 23.6297 18.4909C23.3437 20.8533 21.3778 22.7073 18.941 22.9711C14.5399 23.4425 10.0983 23.4425 5.69716 22.9711C3.26035 22.7073 1.29441 20.8533 1.00848 18.4909C0.486432 14.1788 0.486432 9.82258 1.00848 5.51047C1.1531 4.36274 1.69468 3.29583 2.54543 2.48264C3.39619 1.66946 4.50626 1.15767 5.69574 1.03021M12.3191 5.13803C12.602 5.13803 12.8734 5.24663 13.0735 5.43993C13.2736 5.63323 13.386 5.8954 13.386 6.16877V10.9693H18.3549C18.6379 10.9693 18.9092 11.0779 19.1093 11.2712C19.3094 11.4645 19.4218 11.7266 19.4218 12C19.4218 12.2734 19.3094 12.5355 19.1093 12.7288C18.9092 12.9221 18.6379 13.0307 18.3549 13.0307H13.386V17.8312C13.386 18.1046 13.2736 18.3668 13.0735 18.5601C12.8734 18.7534 12.602 18.8619 12.3191 18.8619C12.0361 18.8619 11.7647 18.7534 11.5647 18.5601C11.3646 18.3668 11.2522 18.1046 11.2522 17.8312V13.0307H6.28324C6.00028 13.0307 5.72891 12.9221 5.52883 12.7288C5.32875 12.5355 5.21634 12.2734 5.21634 12C5.21634 11.7266 5.32875 11.4645 5.52883 11.2712C5.72891 11.0779 6.00028 10.9693 6.28324 10.9693H11.2522V6.16877C11.2522 5.8954 11.3646 5.63323 11.5647 5.43993C11.7647 5.24663 12.0361 5.13803 12.3191 5.13803Z" fill="white"/>
</svg>
