<svg width="63" height="63" viewBox="0 0 63 63" fill="none" xmlns="http://www.w3.org/2000/svg">
<rect x="0.168285" y="0.159302" width="62.2677" height="62.2677" rx="19.1593" fill="#F13C3C"/>
<path d="M26.4861 44.028C24.6578 42.2027 22.8743 40.4213 21.049 38.5991C22.0574 37.6467 23.0678 36.6455 24.1322 35.7044C24.7311 35.1747 25.495 34.9578 26.2986 34.9466C27.1634 34.9343 28.0404 34.859 28.8909 34.9679C29.5926 35.0586 30.2639 35.3845 30.9514 35.5964C31.2661 35.6942 31.586 35.8398 31.9058 35.8439C33.5507 35.8694 35.1967 35.8439 36.8427 35.8602C38.0314 35.8724 38.7953 36.8553 38.4948 37.9401C38.3003 38.6419 37.6901 39.09 36.8875 39.0941C35.4453 39.1023 34.003 39.0972 32.5617 39.0992C32.4263 39.0992 32.2623 39.0666 32.1635 39.1298C32.0402 39.2092 31.9119 39.3661 31.8976 39.5005C31.8874 39.5993 32.0484 39.7266 32.1513 39.8234C32.192 39.8621 32.2806 39.859 32.3468 39.859C33.9755 39.8519 35.6052 39.8916 37.2308 39.8183C38.3817 39.7664 39.2363 38.7794 39.3249 37.6264C39.3402 37.4278 39.4319 37.1986 39.5643 37.0519C40.4728 36.0446 41.3977 35.0515 42.3256 34.0614C42.8379 33.5145 43.4052 33.4717 43.943 33.9168C44.4808 34.3609 44.5674 34.9476 44.1437 35.5363C42.7269 37.5041 41.3131 39.474 39.8709 41.4225C39.0082 42.5888 37.8226 43.1571 36.363 43.1541C33.8176 43.149 31.2733 43.1693 28.7279 43.1449C27.8336 43.1367 27.0412 43.2946 26.4861 44.0249V44.028Z" fill="white"/>
<path d="M19.4703 38.3394C21.9016 40.7757 24.3614 43.2427 26.814 45.7004C26.0817 46.4277 25.3147 47.1896 24.5814 47.9188C22.1317 45.4662 19.6719 43.0023 17.2223 40.5496C17.9363 39.8478 18.7145 39.0829 19.4703 38.3404V38.3394Z" fill="white"/>
<path d="M37.3453 32.9226V20.9226H41.3453V32.9226H37.3453Z" fill="white"/>
<path d="M30.3453 23.9226H34.3453V32.9226H30.3453V23.9226Z" fill="white"/>
<path d="M27.3453 32.9226H23.3453V26.9226H27.3453V32.9226Z" fill="white"/>
<path d="M39.7135 14.8993C39.5007 14.8708 39.3153 14.8969 39.2059 14.8172C39.0656 14.7161 38.8802 14.5092 38.9052 14.3867C38.9396 14.2201 39.1429 13.9787 39.2927 13.9644C39.8217 13.9133 40.365 13.9026 40.8904 13.9692C41.0521 13.9894 41.2696 14.2939 41.2982 14.4925C41.3612 14.9195 41.36 15.3679 41.3005 15.7949C41.2696 16.0138 41.0854 16.348 40.9178 16.3837C40.5219 16.467 40.4518 16.1327 40.4601 15.8045C40.4613 15.7486 40.4423 15.6927 40.4173 15.5428C40.2235 15.72 40.0666 15.8532 39.9204 15.9983C38.394 17.5244 36.8545 19.0385 35.3531 20.5883C34.9216 21.0332 34.5875 21.1283 34.0347 20.7775C32.9506 20.0876 31.8082 19.4905 30.7086 18.8256C30.3698 18.6198 30.1712 18.671 29.9026 18.9422C28.0374 20.8298 26.1567 22.7008 24.2808 24.5765C24.1834 24.674 24.099 24.8227 23.9813 24.8572C23.7804 24.9167 23.5581 24.9048 23.3453 24.9226C23.3512 24.6919 23.3393 24.4587 23.3714 24.2327C23.3821 24.153 23.4986 24.0888 23.5688 24.0186C25.5849 22.0026 27.6094 19.9936 29.6113 17.9621C29.9834 17.585 30.2806 17.5291 30.7418 17.8134C31.8533 18.4973 33.0053 19.1158 34.1239 19.789C34.4627 19.9924 34.6672 20.0162 34.9739 19.701C36.423 18.2107 37.9054 16.7524 39.3735 15.2811C39.4805 15.1741 39.5756 15.0539 39.7123 14.8993H39.7135Z" fill="white"/>
</svg>
