<svg width="71" height="57" viewBox="0 0 71 57" fill="none" xmlns="http://www.w3.org/2000/svg">
<g clip-path="url(#clip0_288_352)">
<path d="M46.1633 34.1862C52.1058 34.1935 56.9403 39.0134 56.944 44.9267C56.944 50.9643 52.0875 55.8061 46.0426 55.7951C40.1073 55.7841 35.1961 50.8326 35.2436 44.9193C35.2948 38.9439 40.1403 34.1752 46.1596 34.1862H46.1633ZM49.3814 47.4061C49.4143 45.6215 48.127 44.2574 46.2583 43.9905C45.1869 43.8369 44.6456 43.2445 44.8577 42.4253C45.015 41.8182 45.4538 41.4196 46.0389 41.405C46.7886 41.3867 47.3115 41.8621 47.4103 42.6045C47.509 43.3505 47.8637 43.7125 48.5805 43.5699C49.407 43.4054 49.4362 42.7727 49.2973 42.0925C49.1108 41.1746 48.661 40.4176 47.8345 39.9642C47.3445 39.6936 47.0226 39.4339 47.0153 38.8013C47.008 38.2564 46.5984 37.9419 46.0316 37.9784C45.5196 38.0114 45.1832 38.3185 45.2015 38.8378C45.2234 39.4229 44.9053 39.6606 44.4482 39.9203C43.2743 40.5895 42.7367 41.6683 42.8793 42.9921C43.0366 44.4549 43.8594 45.4386 45.3185 45.8189C45.7098 45.9213 46.134 45.925 46.5107 46.064C47.1762 46.309 47.5602 46.821 47.3591 47.5377C47.1543 48.2691 46.6058 48.6238 45.8232 48.4739C45.1905 48.3532 44.898 47.8961 44.8138 47.2964C44.7115 46.5906 44.3055 46.17 43.6107 46.3346C42.9269 46.4991 42.7769 47.0769 42.8976 47.7498C43.0695 48.7189 43.5193 49.5015 44.375 49.9915C44.8504 50.2621 45.2307 50.4925 45.2125 51.1398C45.1978 51.6445 45.5562 51.9699 46.0609 51.9882C46.6204 52.0102 47.0263 51.681 47.0226 51.1325C47.019 50.4852 47.3883 50.2621 47.8601 49.9842C48.8621 49.3881 49.2826 48.419 49.385 47.4024L49.3814 47.4061Z" fill="#FEB634"/>
<path d="M11.51 38.3222C11.51 32.7198 11.51 27.1173 11.51 21.5185C11.51 20.0923 11.6891 19.9168 13.119 19.9131C14.6403 19.9095 16.1616 19.9424 17.6829 19.9022C18.7032 19.8766 19.1786 20.2532 19.1749 21.3247C19.1603 32.6759 19.1603 44.0271 19.1749 55.3783C19.1749 56.3766 18.7434 56.7898 17.7633 56.7716C16.1689 56.746 14.5745 56.7716 12.9764 56.7606C11.7147 56.7496 11.51 56.5412 11.51 55.2393C11.5063 49.6003 11.51 43.9613 11.51 38.3222Z" fill="#606669"/>
<path d="M0.345292 40.8674C0.345292 36.1573 0.345292 31.4435 0.345292 26.7333C0.345292 25.2669 0.550081 25.0657 2.02383 25.0621C3.54513 25.0584 5.06642 25.0731 6.58771 25.0584C7.5568 25.0475 8.01758 25.479 8.01392 26.4627C8.00661 36.1097 8.00661 45.7531 8.01392 55.4002C8.01392 56.4058 7.54218 56.7898 6.57308 56.7715C5.01522 56.7423 3.45736 56.7715 1.8995 56.7642C0.520825 56.7569 0.345292 56.585 0.345292 55.2283C0.337978 50.4414 0.345292 45.6581 0.345292 40.8711V40.8674Z" fill="#606669"/>
<path d="M22.6673 43.5773C22.6673 39.7192 22.6673 35.8648 22.6673 32.0067C22.6673 30.6463 22.8685 30.4451 24.1996 30.4378C25.794 30.4305 27.3885 30.4488 28.9829 30.4305C29.9081 30.4232 30.325 30.8218 30.325 31.7726C30.3104 39.6716 30.3104 47.5707 30.325 55.4697C30.325 56.4388 29.8459 56.7789 28.9427 56.7679C27.3117 56.7496 25.6807 56.7423 24.046 56.7679C23.0586 56.7862 22.649 56.3656 22.6527 55.3673C22.6783 51.4361 22.6637 47.5048 22.6637 43.5736L22.6673 43.5773Z" fill="#606669"/>
<path d="M4.39716 13.4476C3.09163 13.4696 2.14448 12.4822 2.21762 11.3741C2.29076 10.2405 3.35493 9.30066 4.4447 9.6115C5.30043 9.85286 5.94771 9.6115 6.65716 9.2714C8.22965 8.52172 9.81311 7.79399 11.3929 7.05529C12.3474 6.60914 13.3494 6.30927 13.8248 5.14636C14.0991 4.47713 14.8999 4.24309 15.6569 4.39302C16.4944 4.55759 17.1453 5.06956 17.1965 5.9326C17.2477 6.83587 17.7999 7.31859 18.3631 7.84519C20.6304 9.98451 22.9013 12.1165 25.1723 14.2558C26.039 15.0713 27.2751 15.2322 28.2807 14.6325C30.1311 13.5354 31.9743 12.4274 33.8247 11.3303C34.7316 10.7927 35.6751 10.3868 36.0408 9.18363C36.2968 8.33156 37.4926 8.03535 38.33 8.36813C39.1967 8.71189 39.7672 9.65538 39.61 10.4892C39.4271 11.4729 38.4946 12.3213 37.5401 12.0946C36.7246 11.9007 36.1907 12.2189 35.5946 12.5773C33.4919 13.8316 31.3965 15.0969 29.2827 16.3293C28.811 16.6036 28.4782 16.9181 28.3063 17.4593C27.9918 18.4394 27.2422 18.8965 26.2475 18.7685C25.2491 18.6405 24.6384 17.9676 24.5543 16.9839C24.5068 16.439 24.2837 16.1062 23.9216 15.7662C21.5702 13.5537 19.2334 11.3266 16.8893 9.11049C15.7301 8.01706 14.4245 7.83056 12.98 8.5071C11.2686 9.30797 9.53884 10.0759 7.8347 10.8878C6.98994 11.29 6.05376 11.5351 5.70269 12.6431C5.5235 13.2099 4.85428 13.4294 4.41179 13.4513L4.39716 13.4476Z" fill="#FEB738"/>
<path d="M33.8247 40.8309C33.8247 35.5283 33.8247 30.2257 33.8247 24.9231C33.8247 24.1259 34.2745 23.7822 35.0168 23.7785C36.7612 23.7675 38.5019 23.7748 40.2463 23.7785C41.1349 23.7785 41.4896 24.2356 41.4823 25.1096C41.4604 27.5196 41.4714 29.9295 41.4823 32.3431C41.4823 32.7783 41.4275 33.1037 40.9557 33.3158C37.5694 34.8298 35.3021 37.3933 33.8283 40.8309H33.8247Z" fill="#61676A"/>
<path d="M42.5027 21.087C41.2776 21.087 40.7619 20.6152 40.5425 19.8217C40.0488 18.0407 39.5661 16.2562 39.12 14.4642C38.8859 13.5281 39.2992 12.8332 40.2024 12.5736C42.616 11.8788 45.0406 11.2132 47.4761 10.6062C48.2916 10.405 48.9718 10.8548 49.2132 11.6484C49.7763 13.5244 50.2773 15.4187 50.7527 17.3167C50.9319 18.0407 50.6321 18.7648 49.9519 18.9769C47.3774 19.7705 44.77 20.4543 42.5027 21.0833V21.087Z" fill="#61676A"/>
<path d="M59.2698 18.7721C57.3499 18.6222 55.43 18.4576 53.5101 18.3296C52.9798 18.2931 52.8079 18.1322 52.7055 17.558C52.2704 15.1188 51.6597 12.7126 50.7674 10.3977C50.5662 9.87841 50.6833 9.69922 51.0672 9.43592C52.7238 8.31323 54.3548 7.15398 56.0151 6.03861C56.933 5.42058 57.5364 5.64 57.8326 6.71515C58.809 10.2843 59.7635 13.8572 60.7033 17.4337C60.9483 18.3699 60.4217 18.8453 59.2734 18.7685L59.2698 18.7721Z" fill="#62686B"/>
<path d="M33.821 49.1468C35.2436 52.471 37.4487 54.9504 40.7985 56.6106C39.983 56.9178 39.2992 56.7825 38.6409 56.7935C37.456 56.8154 36.2675 56.8008 35.0827 56.7935C34.2964 56.7862 33.8174 56.4461 33.821 55.594C33.8247 53.4474 33.821 51.2971 33.821 49.1505V49.1468Z" fill="#63686B"/>
<path d="M50.8076 25.6472C50.7856 26.5432 50.409 27.0076 49.7288 27.1831C49.0266 27.3623 48.4123 27.0844 48.1892 26.4225C47.743 25.095 47.4176 23.7273 47.0446 22.3779C46.9422 22.0158 47.1104 21.8184 47.4542 21.7306C47.5602 21.705 47.6699 21.6794 47.776 21.6502C49.0193 21.2991 49.7983 21.7574 50.1128 23.0252C50.3468 23.954 50.6028 24.8756 50.8039 25.6472H50.8076Z" fill="#656B6E"/>
<path d="M64.3603 11.6704C63.596 11.685 63.2303 11.4656 63.095 10.9792C62.945 10.4343 63.1754 9.97353 63.691 9.82359C65.5671 9.28236 67.454 8.7777 69.3483 8.30596C69.8713 8.17431 70.2882 8.44858 70.4527 8.98981C70.6027 9.48715 70.4235 9.94793 69.9627 10.0869C68.0245 10.672 66.0681 11.195 64.3603 11.6704Z" fill="#666C6F"/>
<path d="M66.2436 1.89895C66.2034 2.3451 65.962 2.61937 65.6914 2.88267C64.5358 4.03095 63.3765 5.18289 62.2319 6.34215C61.7382 6.84315 61.1677 7.15399 60.5936 6.60179C60.0121 6.04593 60.2937 5.46814 60.802 4.96713C62.0161 3.76765 63.2156 2.56086 64.4188 1.35406C64.7918 0.981053 65.205 0.787234 65.717 1.03225C66.09 1.21144 66.2216 1.55154 66.2399 1.89895H66.2436Z" fill="#686E71"/>
<path d="M69.2642 18.7027C67.5052 18.2163 65.5487 17.697 63.6069 17.1156C63.1352 16.9766 62.9523 16.5085 63.0913 16.0222C63.2412 15.4956 63.6508 15.1737 64.181 15.309C66.0753 15.7845 67.9623 16.2964 69.842 16.834C70.3649 16.9839 70.5917 17.4301 70.4637 17.975C70.3467 18.4723 69.9773 18.6881 69.2679 18.699L69.2642 18.7027Z" fill="#666B6E"/>
<path d="M49.3814 47.4061C49.279 48.4191 48.8584 49.3918 47.8564 49.9879C47.3847 50.2695 47.0153 50.4926 47.019 51.1362C47.0226 51.6847 46.6167 52.0139 46.0572 51.9919C45.5525 51.9736 45.1905 51.6482 45.2088 51.1435C45.2307 50.4962 44.8467 50.2658 44.3713 49.9952C43.5193 49.5088 43.0658 48.7226 42.8939 47.7535C42.7732 47.0806 42.9232 46.5028 43.607 46.3383C44.3019 46.1737 44.7078 46.5943 44.8102 47.3C44.8979 47.8998 45.1868 48.3532 45.8195 48.4776C46.6021 48.6275 47.1506 48.2728 47.3554 47.5414C47.5565 46.8246 47.1726 46.3127 46.507 46.0676C46.1303 45.9287 45.7061 45.925 45.3148 45.8226C43.8557 45.4423 43.0329 44.4586 42.8756 42.9958C42.733 41.672 43.2669 40.5932 44.4445 39.924C44.8979 39.6643 45.2198 39.4266 45.1978 38.8415C45.1795 38.3222 45.516 38.015 46.0279 37.9821C46.5948 37.9456 47.008 38.2601 47.0117 38.8049C47.019 39.4376 47.3408 39.6972 47.8308 39.9678C48.6573 40.4213 49.1034 41.182 49.2936 42.0962C49.4326 42.7764 49.407 43.409 48.5768 43.5736C47.8601 43.7162 47.5017 43.3542 47.4066 42.6082C47.3079 41.8622 46.7886 41.3867 46.0353 41.4087C45.4501 41.4233 45.0113 41.8256 44.8541 42.429C44.642 43.2445 45.1832 43.8406 46.2547 43.9942C48.1197 44.2575 49.4106 45.6215 49.3777 47.4098L49.3814 47.4061Z" fill="#F6F4F0"/>
</g>
<defs>
<clipPath id="clip0_288_352">
<rect width="70.1587" height="55.8929" fill="white" transform="translate(0.345276 0.922546)"/>
</clipPath>
</defs>
</svg>
