<svg width="71" height="71" viewBox="0 0 71 71" fill="none" xmlns="http://www.w3.org/2000/svg">
<g clip-path="url(#clip0_289_819)">
<path d="M64.627 46.8419C68.4705 49.453 70.6573 53.0039 70.6647 57.7286C70.672 63.0422 67.1393 67.895 62.1659 69.5077C56.8633 71.2265 51.2353 69.4419 48.0245 65.0243C47.805 64.7207 47.5783 64.4245 47.3552 64.1247C46.9968 63.3713 46.6348 62.6143 46.2764 61.861C46.2143 61.5758 46.1704 61.2869 46.0899 61.0053C44.5723 55.5784 46.8177 49.8662 51.6485 46.9333C55.0348 44.8781 58.6333 44.666 62.3707 45.7667C63.124 46.1251 63.8773 46.4835 64.6307 46.8419H64.627ZM64.3601 53.2196C64.393 51.7239 64.0675 51.3911 62.5682 51.3729C62.2756 51.3729 61.983 51.3729 61.6905 51.3729C60.218 51.3729 59.4537 50.6598 59.3976 49.2335C59.3903 49.0653 59.4012 48.8971 59.372 48.7325C59.2513 48.0816 58.8673 47.661 58.1981 47.6391C57.4667 47.6135 57.0096 48.0341 56.9218 48.7472C56.8523 49.325 56.8633 49.9174 56.8962 50.4988C56.9328 51.1059 56.7865 51.3619 56.088 51.3911C53.0418 51.5264 51.8131 52.9271 51.9045 56.0391C51.846 58.6392 53.2612 60.1276 55.8247 60.1422C57.2436 60.1495 58.6625 60.1495 60.0814 60.1422C60.6739 60.1422 61.259 60.1459 61.6685 60.6761C61.4126 61.4587 60.747 61.3893 60.1363 61.3929C57.986 61.4039 55.8357 61.3892 53.6854 61.4002C52.219 61.4075 51.8899 61.7659 51.9228 63.247C51.8825 64.7939 52.2153 65.1449 53.7512 65.1559C54.7825 65.1632 55.8138 65.1559 56.845 65.1559C56.8633 65.7301 56.8853 66.3005 56.9035 66.8747C56.9035 67.1636 56.867 67.4598 56.9035 67.7414C57.0023 68.4435 57.4155 68.8897 58.1359 68.8897C58.8564 68.8897 59.2696 68.4435 59.3683 67.7414C59.4086 67.4561 59.3683 67.1636 59.3683 66.8747C59.3903 66.3042 59.4086 65.7301 59.4305 65.1596C59.7596 65.1596 60.0887 65.1596 60.4179 65.1596C63.0143 65.1449 64.4332 63.6675 64.371 61.0528C64.4661 57.842 63.0655 56.3902 59.873 56.3902C58.5894 56.3902 57.3058 56.3975 56.0222 56.3902C55.4408 56.3865 54.8337 56.4012 54.6106 55.6771C55.0165 55.1505 55.5907 55.1395 56.1831 55.1395C58.2932 55.1468 60.4069 55.1468 62.517 55.1395C64.0602 55.1322 64.393 54.7775 64.3528 53.2306L64.3601 53.2196Z" fill="#F9B402"/>
<path d="M23.8301 64.121C21.2153 67.9645 17.6681 70.155 12.947 70.1586C7.58953 70.166 2.72578 66.5895 1.12769 61.5355C-0.532565 56.2878 1.27031 50.6963 5.655 47.5111C5.95853 47.2917 6.25474 47.065 6.55461 46.8419C7.30794 46.4835 8.06128 46.1251 8.81461 45.7631C9.09985 45.7046 9.38875 45.6571 9.67034 45.5803C14.9656 44.1284 20.4547 46.1471 23.4717 50.711C25.7646 54.1778 26.0608 57.9298 24.9089 61.8537C24.5505 62.607 24.1921 63.364 23.8337 64.1174L23.8301 64.121ZM5.53432 65.1267C5.38073 66.0629 5.67694 66.4468 6.72649 66.4322C10.9356 66.3737 15.1448 66.3737 19.3503 66.4322C20.3998 66.4468 20.6887 66.0555 20.5388 65.123C20.5425 61.2028 20.5498 57.2862 20.5534 53.3659C20.5534 50.0161 20.5022 49.9832 17.1122 50.1076C16.0115 50.1478 15.5324 50.6598 15.5397 51.7386C15.5471 53.1136 15.5178 54.4886 15.5032 55.8636C14.556 54.6422 13.2139 55.2383 12.0364 55.1468C11.0198 55.0664 10.5334 55.6588 10.5334 56.6718C10.5297 58.0761 10.5078 59.4803 10.4932 60.8846C9.55697 59.6412 8.21487 60.2556 7.04464 60.1569C6.03532 60.0728 5.51969 60.6359 5.52335 61.6562C5.53066 62.8118 5.53432 63.9674 5.53798 65.123L5.53432 65.1267Z" fill="#F9B402"/>
<path d="M47.3772 6.03032C49.9407 2.2088 53.4624 0.0512015 58.1213 0.0073181C63.5409 -0.0438793 68.4339 3.52896 70.0503 8.6231C71.7252 13.9111 69.8931 19.5099 65.4426 22.7097C65.1719 22.9035 64.905 23.101 64.6344 23.2948C63.8884 23.6678 63.1387 24.0408 62.3927 24.4138C62.1074 24.465 61.8149 24.4979 61.5369 24.5747C55.1921 26.3264 48.6315 22.9913 46.3679 16.8586C45.3183 14.0135 45.461 11.1501 46.2545 8.27935L47.3735 6.03398L47.3772 6.03032ZM50.599 12.2581C50.7745 13.315 50.6941 14.2036 49.469 14.6607C48.7083 14.9423 48.5694 15.6847 48.6352 16.4417C48.5584 17.9959 49.6116 19.0271 50.3942 20.1681C50.7197 20.6435 51.2207 20.5813 51.7436 20.3656C53.5757 19.6159 54.3437 19.8097 55.5944 21.2652C55.6895 21.5285 55.7845 21.7881 55.8796 22.0514C55.5615 23.0754 55.865 23.6861 56.8487 23.7739C57.7081 23.8507 58.5858 23.8507 59.4415 23.7739C60.4216 23.6861 60.7287 23.0717 60.4069 22.0478C60.4947 21.7077 60.5861 21.3676 60.6739 21.0275C61.9099 20.1864 63.1058 19.2173 64.6819 20.4022C65.0878 20.7093 65.6108 20.5777 65.8997 20.1571C66.6859 19.0162 67.7245 17.9812 67.6514 16.4344C67.7208 15.6774 67.5746 14.935 66.8212 14.6534C65.5998 14.2 65.5084 13.3186 65.6876 12.2581C66.2434 12.1959 66.6311 11.812 67.0297 11.4975C67.4978 11.1245 68.0061 10.6783 67.4027 10.0018C68.0792 8.75475 67.0333 7.97948 66.5616 7.07621C65.8265 5.6756 65.4096 5.57686 63.9944 6.2278C62.5828 6.87873 60.7946 5.88039 60.6556 4.36641C60.4984 2.66227 60.3228 2.50136 58.5858 2.4977C58.1689 2.4977 57.752 2.51233 57.3387 2.4977C56.2087 2.45382 55.6712 2.95482 55.631 4.12139C55.5651 5.92793 53.8171 6.9409 52.1934 6.1766C51.7509 5.96815 51.356 5.66097 50.7928 5.90964C49.714 6.38139 48.5365 8.86446 48.8912 10.0091C48.3536 10.5649 48.7193 10.9782 49.1106 11.3841C49.5275 11.812 50.0943 11.9912 50.6026 12.2618L50.599 12.2581Z" fill="#0D527A"/>
<path d="M6.55095 23.3202C2.70383 20.7091 0.520631 17.1618 0.513317 12.4334C0.506003 7.07231 4.06422 2.2305 9.13641 0.610474C14.3622 -1.0571 19.9866 0.76041 23.1645 5.14144C23.3839 5.44497 23.6106 5.74484 23.8337 6.04471C24.1921 6.79804 24.5505 7.55503 24.9089 8.30836C24.971 8.5936 25.0186 8.8825 25.0954 9.16409C26.624 14.6385 24.3164 20.4019 19.4271 23.3019C16.059 25.2986 12.5008 25.4887 8.81095 24.4026C8.05761 24.0442 7.30062 23.6822 6.54729 23.3238L6.55095 23.3202ZM13.042 22.5449C18.5714 22.5449 23.0694 18.0212 23.0548 12.4846C23.0402 7.00649 18.5677 2.52672 13.0932 2.50112C7.56027 2.47552 3.0293 6.96992 3.01833 12.4956C3.00736 18.0285 7.51638 22.5449 13.042 22.5412V22.5449Z" fill="#F9B507"/>
<path d="M24.9089 8.30851C24.5505 7.55518 24.1921 6.79819 23.8337 6.04486C31.6816 2.96205 39.5257 2.99496 47.3772 6.03389C47.0042 6.78356 46.6312 7.52958 46.2582 8.27926C39.1381 5.617 32.0217 5.58043 24.9125 8.31217L24.9089 8.30851Z" fill="#07A2C8"/>
<path d="M23.83 64.121C24.1884 63.3677 24.5468 62.6107 24.9088 61.8574C32.0289 64.5781 39.1527 64.5781 46.2727 61.861C46.6311 62.6144 46.9932 63.3713 47.3515 64.1247C39.511 67.1965 31.6705 67.1892 23.83 64.121Z" fill="#07A2C8"/>
<path d="M6.55092 23.3204C7.30426 23.6788 8.06125 24.0408 8.81458 24.3992C6.09015 31.5193 6.10112 38.643 8.81458 45.7631C8.06125 46.1215 7.30791 46.4799 6.55458 46.8419C3.48274 39.0014 3.47908 31.1609 6.55458 23.3204H6.55092Z" fill="#07A2C8"/>
<path d="M62.3927 24.4138C63.1387 24.0408 63.8884 23.6677 64.6344 23.2947C67.6733 31.1426 67.7099 38.994 64.6271 46.8382C63.8737 46.4798 63.1204 46.1214 62.3671 45.7631C63.2301 43.4555 63.8664 41.0968 64.1773 38.643C64.7953 33.7427 64.1005 29.0142 62.3963 24.4101L62.3927 24.4138Z" fill="#07A2C8"/>
<path d="M62.3926 24.4138C64.0967 29.0179 64.7916 33.7463 64.1735 38.6466C63.8627 41.0968 63.2264 43.4592 62.3633 45.7667C58.6259 44.666 55.0275 44.8781 51.6412 46.9333C46.8103 49.8662 44.5649 55.5783 46.0826 61.0053C46.1594 61.2868 46.2069 61.5757 46.2691 61.861C39.1453 64.5781 32.0253 64.5781 24.9052 61.8573C26.0571 57.9334 25.7645 54.185 23.468 50.7146C20.451 46.1544 14.9619 44.1321 9.66664 45.5839C9.38505 45.6607 9.09615 45.7046 8.81091 45.7667C6.09745 38.6466 6.09014 31.5229 8.81091 24.4028C12.5008 25.4889 16.059 25.2988 19.427 23.3021C24.3164 20.4021 26.6203 14.6387 25.0953 9.16428C25.0185 8.8827 24.971 8.5938 24.9088 8.30856C32.0216 5.57681 39.1344 5.61338 46.2545 8.27564C45.4609 11.1464 45.3146 14.0097 46.3678 16.8549C48.6351 22.9912 55.1957 26.3227 61.5369 24.571C61.8148 24.4942 62.1074 24.465 62.3926 24.4101V24.4138ZM25.5268 46.158C27.7795 48.4583 30.5917 49.6468 33.7221 50.0015C38.2457 50.5135 42.3013 49.3871 45.6511 46.158C45.8449 46.0008 46.0533 45.8618 46.2289 45.6863C51.3559 40.6031 52.08 32.5103 47.9513 26.5238C43.8116 20.5228 35.9199 18.3725 29.2899 21.4334C19.5112 25.9497 17.4633 39.4183 25.5305 46.1544L25.5268 46.158Z" fill="#F5F5F5"/>
<path d="M51.9264 63.2434C51.8935 61.7623 52.2226 61.4039 53.6891 61.3966C55.8393 61.3857 57.9896 61.3966 60.1399 61.3893C60.7506 61.3893 61.4162 61.4588 61.6722 60.6726C61.9977 59.506 61.632 58.9355 60.4508 58.8989C59.1233 58.855 57.7922 58.8258 56.4683 58.8989C54.2412 59.0269 52.72 58.12 51.9118 56.0319C51.8203 52.9198 53.0491 51.5192 56.0953 51.3839C56.7938 51.3546 56.9401 51.0986 56.9035 50.4916C56.8669 49.9101 56.8596 49.3177 56.9291 48.7399C57.0132 48.0231 57.474 47.6063 58.2054 47.6319C58.8746 47.6538 59.2586 48.0743 59.3793 48.7253C59.4085 48.8862 59.3976 49.0581 59.4049 49.2263C59.4585 50.6525 60.2228 51.3656 61.6978 51.3656C61.9903 51.3656 62.2829 51.3656 62.5755 51.3656C64.0785 51.3839 64.4003 51.7167 64.371 53.216C63.8883 53.7499 63.2849 53.8962 62.5791 53.8852C60.3776 53.856 58.1761 53.856 55.971 53.8852C54.6837 53.8999 54.2924 54.4594 54.6252 55.6625C54.8483 56.3866 55.4554 56.372 56.0368 56.3756C57.3204 56.3866 58.604 56.3756 59.8876 56.3756C63.0838 56.3756 64.4807 57.8311 64.3856 61.0419C63.6835 62.7643 62.5279 63.9455 60.5568 63.8687C59.4963 63.8285 59.2293 64.2125 59.4451 65.1487C59.4232 65.7191 59.4049 66.2933 59.3829 66.8638C58.3626 67.9316 57.9384 67.9316 56.9145 66.8638C56.8962 66.2896 56.8743 65.7191 56.856 65.145C57.079 64.1979 56.7901 63.8651 55.7406 63.8541C54.4643 63.8395 53.0418 64.388 51.9337 63.2361L51.9264 63.2434Z" fill="#EFEEEB"/>
<path d="M51.9081 56.0391C52.7163 58.1272 54.2376 59.0342 56.4647 58.9062C57.7885 58.8294 59.1233 58.8623 60.4471 58.9062C61.6283 58.9427 61.9903 59.5132 61.6685 60.6798C61.2589 60.1495 60.6775 60.1422 60.0814 60.1459C58.6625 60.1532 57.2436 60.1569 55.8247 60.1459C53.2612 60.1313 51.8459 58.6429 51.9045 56.0428L51.9081 56.0391Z" fill="#DC9703"/>
<path d="M54.6143 55.6662C54.2815 54.4594 54.6765 53.9035 55.96 53.8889C58.1615 53.8633 60.363 53.8633 62.5682 53.8889C63.274 53.8999 63.8774 53.7536 64.3601 53.2197C64.4003 54.7666 64.0675 55.1213 62.5243 55.1286C60.4142 55.1359 58.3005 55.1359 56.1904 55.1286C55.598 55.1286 55.0239 55.1396 54.6179 55.6662H54.6143Z" fill="#DC9703"/>
<path d="M59.4378 65.156C59.222 64.2198 59.489 63.8358 60.5495 63.876C62.5169 63.9528 63.6725 62.768 64.3783 61.0492C64.4405 63.6639 63.0216 65.1413 60.4252 65.156C60.096 65.156 59.7669 65.156 59.4378 65.156Z" fill="#DC9703"/>
<path d="M51.9264 63.2433C53.0345 64.3953 54.4571 63.8467 55.7333 63.8614C56.7829 63.8723 57.0718 64.2051 56.8487 65.1523C55.8174 65.1523 54.7862 65.1596 53.7549 65.1523C52.2227 65.1413 51.8862 64.7866 51.9264 63.2433Z" fill="#DC9703"/>
<path d="M56.9072 66.871C57.9312 67.9389 58.3554 67.9389 59.3757 66.871C59.3757 67.1599 59.4122 67.4561 59.3757 67.7377C59.2769 68.4399 58.8673 68.886 58.1433 68.886C57.4228 68.886 57.0096 68.4435 56.9109 67.7377C56.8706 67.4561 56.9072 67.1599 56.9109 66.871H56.9072Z" fill="#DC9703"/>
<path d="M15.4995 55.8636C15.5141 54.4886 15.547 53.1135 15.5361 51.7385C15.5288 50.6597 16.0078 50.1478 17.1086 50.1075C20.4986 49.9832 20.5534 50.0161 20.5498 53.3659C20.5498 57.2861 20.5388 61.2027 20.5351 65.123C18.8712 65.123 17.2073 65.1157 15.5434 65.1157C15.5288 62.0329 15.5105 58.95 15.4958 55.8636H15.4995Z" fill="#0B5077"/>
<path d="M15.4995 55.8636C15.5142 58.9464 15.5324 62.0292 15.5471 65.1157C13.8758 65.1157 12.201 65.1157 10.5297 65.1157C10.5151 63.7078 10.5041 62.2962 10.4895 60.8883C10.5041 59.484 10.5261 58.0797 10.5297 56.6754C10.5297 55.6625 11.0161 55.07 12.0327 55.1505C13.2103 55.2419 14.5524 54.6422 15.4995 55.8673V55.8636Z" fill="#C70C51"/>
<path d="M10.4895 60.8883C10.5041 62.2962 10.5151 63.7078 10.5297 65.1157C8.86579 65.1193 7.20188 65.123 5.53796 65.1267C5.53431 63.9711 5.52699 62.8155 5.52333 61.6599C5.51968 60.6396 6.03165 60.0764 7.04463 60.1605C8.21851 60.2593 9.56061 59.6449 10.4931 60.8883H10.4895Z" fill="#009EC6"/>
<path d="M5.53432 65.1267C7.19823 65.123 8.86215 65.1194 10.5261 65.1157C12.1973 65.1157 13.8722 65.1157 15.5434 65.1157C17.2073 65.1157 18.8712 65.123 20.5351 65.123C20.6851 66.0556 20.3962 66.4469 19.3466 66.4322C15.1375 66.3737 10.9283 66.3737 6.72283 66.4322C5.67694 66.4469 5.38073 66.0629 5.53066 65.1267H5.53432Z" fill="#DC9703"/>
<path d="M60.6739 21.0347C60.5861 21.3748 60.4947 21.7149 60.4069 22.055C58.8966 22.8413 57.3899 22.8413 55.8796 22.055C55.7845 21.7917 55.6894 21.5321 55.5944 21.2688C55.6894 19.177 53.8829 17.9592 52.0691 18.9393C51.0597 19.4842 50.4234 19.166 49.8895 18.2884C49.5019 17.6521 49.2825 16.9024 48.6388 16.4416C48.5694 15.6846 48.712 14.9423 49.4726 14.6607C50.6977 14.2035 50.7745 13.3186 50.6026 12.2617C51.0671 10.7258 49.575 10.6709 48.8912 10.009C48.5328 8.86805 49.714 6.38132 50.7928 5.90958C51.356 5.66456 51.7509 5.96809 52.1934 6.17653C53.8171 6.94084 55.5651 5.93152 55.6309 4.12133C55.6748 2.95476 56.2087 2.45375 57.3387 2.49764C57.7556 2.51227 58.1725 2.49764 58.5858 2.49764C60.3228 2.50495 60.502 2.66586 60.6556 4.36634C60.7946 5.88032 62.5828 6.87867 63.9944 6.22773C65.4133 5.57314 65.8302 5.67553 66.5616 7.07614C67.0333 7.97941 68.0792 8.75469 67.4027 10.0017C66.7225 10.6746 65.2231 10.7185 65.6912 12.2617C65.512 13.3222 65.6034 14.1999 66.8249 14.657C67.5782 14.9386 67.7245 15.681 67.655 16.4379C67.0553 16.9207 66.792 17.6338 66.4153 18.2664C65.8558 19.1953 65.1939 19.4805 64.1589 18.9027C62.5316 17.9922 60.6848 19.1551 60.6812 21.0311L60.6739 21.0347ZM62.9156 11.7644L62.9266 11.7717C63.0326 11.1171 62.8059 10.5466 62.4768 10.0017C61.2663 7.99404 58.988 7.07249 56.7938 7.70148C54.5082 8.35608 53.1296 10.276 53.1771 12.7444C53.4404 15.6005 55.3823 17.5021 58.0847 17.535C60.8311 17.5716 62.8461 15.6517 63.1167 12.7444C63.1167 12.4043 63.2813 12.0277 62.9192 11.7607L62.9156 11.7644Z" fill="#009EC6"/>
<path d="M48.6352 16.4417C49.2788 16.9024 49.5019 17.6521 49.8859 18.2884C50.4234 19.1661 51.0597 19.4842 52.0654 18.9394C53.8793 17.9593 55.6858 19.1734 55.5907 21.2688C54.34 19.8134 53.5721 19.6195 51.7399 20.3692C51.2207 20.5813 50.7197 20.6471 50.3905 20.1717C49.6079 19.0308 48.5511 17.9995 48.6315 16.4453L48.6352 16.4417Z" fill="#00365E"/>
<path d="M60.6739 21.0348C60.6775 19.1588 62.528 17.9959 64.1516 18.9064C65.1866 19.4842 65.8485 19.2027 66.408 18.2701C66.7883 17.6411 67.0516 16.928 67.6477 16.4417C67.7208 17.9885 66.6823 19.0235 65.896 20.1608C65.6071 20.5813 65.0842 20.7093 64.6783 20.4058C63.1021 19.2209 61.9063 20.19 60.6702 21.0311L60.6739 21.0348Z" fill="#00365E"/>
<path d="M55.8796 22.0551C57.3899 22.8376 58.8966 22.8413 60.4069 22.0551C60.7287 23.079 60.4215 23.6897 59.4415 23.7811C58.5821 23.8579 57.7044 23.8579 56.8487 23.7811C55.8686 23.6934 55.5614 23.0827 55.8796 22.0587V22.0551Z" fill="#00365E"/>
<path d="M65.6875 12.2691C65.2194 10.7295 66.7224 10.682 67.399 10.0091C68.006 10.6856 67.4977 11.1318 67.026 11.5048C66.6274 11.8229 66.2397 12.2033 65.6839 12.2654L65.6875 12.2691Z" fill="#00365E"/>
<path d="M48.8839 10.0091C49.5677 10.6747 51.0597 10.7259 50.5953 12.2618C50.0833 11.9912 49.5165 11.812 49.1033 11.3841C48.7083 10.9782 48.3463 10.565 48.8839 10.0091Z" fill="#00365E"/>
<path d="M13.042 22.5488C7.51273 22.5488 3.00736 18.0361 3.01833 12.5031C3.0293 6.97745 7.56027 2.48306 13.0932 2.50865C18.5714 2.53425 23.0402 7.01402 23.0548 12.4921C23.0731 18.0251 18.5714 22.5488 13.042 22.5524V22.5488ZM13.9782 13.5051C14.044 13.3515 14.1574 13.2016 14.172 13.0443C14.4207 10.298 14.2927 7.54428 14.2379 4.79791C14.2269 4.1616 13.693 3.75933 13.0164 3.78127C12.2851 3.80322 11.8426 4.24205 11.806 4.96247C11.7548 5.96082 11.8133 6.96648 11.7731 7.96849C11.7329 9.03997 12.2339 10.415 11.561 11.0952C10.9466 11.7205 9.57891 11.2415 8.54764 11.2707C6.9203 11.3183 6.50341 11.9399 7.08486 13.5051C6.4193 14.5327 7.20554 14.9313 7.92596 14.9789C9.65205 15.0922 11.4001 15.0922 13.1262 14.9789C13.8502 14.9313 14.6292 14.5327 13.9746 13.5051H13.9782Z" fill="#EFEEED"/>
<path d="M25.5268 46.158C17.4596 39.4183 19.5075 25.9534 29.2862 21.437C35.9162 18.3725 43.808 20.5265 47.9476 26.5275C52.08 32.5139 51.3523 40.6068 46.2252 45.69C46.0497 45.8655 45.8412 46.0045 45.6474 46.1617C45.6328 45.4157 45.6291 44.6697 45.6072 43.9236C45.5414 41.6673 44.0054 40.1424 41.7308 40.1021C40.5277 40.0802 39.3282 40.0948 38.125 40.0948C38.0958 39.2537 38.0702 38.4126 38.0409 37.5715C39.3574 36.7158 40.5642 35.765 40.5825 34.006C40.6008 32.4737 40.5496 30.9378 40.5277 29.4055C40.5496 28.7839 40.6191 28.1622 40.5862 27.5405C40.513 26.096 39.5732 25.1196 38.136 25.0757C36.4355 25.0208 34.7314 25.0208 33.0309 25.0757C31.5754 25.1232 30.6575 26.0777 30.5844 27.5368C30.5515 28.1549 30.621 28.7802 30.6429 29.4019C30.621 30.3966 30.6649 31.3986 30.5588 32.386C30.3138 34.6789 31.0379 36.4561 33.1297 37.5715C33.1004 38.4126 33.0748 39.2537 33.0455 40.0948C31.8863 40.0948 30.7234 40.0875 29.5641 40.0985C27.1432 40.1277 25.6036 41.649 25.5598 44.048C25.5451 44.7538 25.5342 45.4559 25.5232 46.1617L25.5268 46.158Z" fill="#C70C51"/>
<path d="M25.5269 46.158C25.5378 45.4522 25.5524 44.7501 25.5634 44.0443C25.6073 41.6453 27.1432 40.1241 29.5678 40.0948C30.727 40.0802 31.89 40.0911 33.0492 40.0911C33.4112 41.7587 34.2011 42.5596 35.525 42.5962C36.8744 42.6327 37.752 41.788 38.1251 40.0911C39.3282 40.0911 40.5277 40.0765 41.7308 40.0985C44.0054 40.1387 45.545 41.6636 45.6072 43.92C45.6291 44.666 45.6328 45.412 45.6474 46.158C42.2976 49.3871 38.2421 50.5098 33.7184 50.0015C30.5881 49.6468 27.7759 48.4583 25.5232 46.158H25.5269Z" fill="#F9B402"/>
<path d="M63.1131 12.7482C62.8424 15.6554 60.8275 17.5717 58.0811 17.5388C55.3823 17.5059 53.4368 15.6042 53.1735 12.7482C53.2429 12.6019 53.3271 12.4629 53.3746 12.313C54.4644 8.8279 58.9185 7.69059 61.5003 10.2468C61.994 10.7368 62.4512 11.2634 62.9266 11.7717L62.9156 11.7644C62.9412 12.1009 62.7986 12.4702 63.1131 12.7482Z" fill="#0B5077"/>
<path d="M62.9265 11.7717C62.4511 11.2634 61.994 10.7368 61.5003 10.2468C58.9185 7.69057 54.468 8.82788 53.3746 12.313C53.327 12.4629 53.2393 12.6055 53.1734 12.7481C53.1259 10.2797 54.5046 8.35979 56.7902 7.7052C58.988 7.0762 61.2626 7.99776 62.4731 10.0054C62.8022 10.5503 63.0326 11.1208 62.9229 11.7754L62.9265 11.7717Z" fill="#00365E"/>
<path d="M63.1131 12.7481C62.8022 12.4702 62.9412 12.1008 62.9156 11.7644C63.2776 12.035 63.1131 12.408 63.1131 12.7481Z" fill="#00365E"/>
<path d="M7.08852 13.5051C6.50706 11.94 6.92395 11.3183 8.5513 11.2707C9.58622 11.2415 10.9503 11.7169 11.5646 11.0952C12.2375 10.415 11.7328 9.04 11.7767 7.96852C11.817 6.96651 11.7584 5.96451 11.8096 4.9625C11.8462 4.24208 12.2924 3.80325 13.0201 3.7813C13.693 3.76302 14.2269 4.16163 14.2415 4.79794C14.2927 7.54797 14.4244 10.298 14.1757 13.0444C14.1611 13.2016 14.0477 13.3516 13.9819 13.5051C11.6853 13.9476 9.38874 13.9513 7.09217 13.5051H7.08852Z" fill="#0D527A"/>
<path d="M7.08851 13.5051C9.38508 13.9513 11.6816 13.9476 13.9782 13.5051C14.6328 14.5327 13.8539 14.9313 13.1298 14.9789C11.4037 15.0886 9.65569 15.0922 7.92961 14.9789C7.20553 14.9313 6.42294 14.5327 7.08851 13.5051Z" fill="#D0D1D1"/>
<path d="M33.1334 37.5679C31.0416 36.4489 30.3212 34.6753 30.5625 32.3823C30.6686 31.395 30.621 30.393 30.6466 29.3983C31.1842 28.0781 32.1753 27.5186 33.5868 27.5552C34.9216 27.5917 36.2564 27.5954 37.5912 27.5552C39.0064 27.5113 39.9865 28.0927 40.5314 29.4019C40.5533 30.9342 40.6045 32.4701 40.5862 34.0024C40.568 35.7614 39.3612 36.7122 38.0447 37.5679C36.4063 37.5679 34.7717 37.5679 33.1334 37.5679Z" fill="#EEC69F"/>
<path d="M40.5313 29.4019C39.9864 28.0927 39.0027 27.5149 37.5911 27.5551C36.2563 27.5953 34.9215 27.5917 33.5868 27.5551C32.1788 27.5149 31.1841 28.078 30.6466 29.3982C30.6246 28.7765 30.5551 28.1512 30.588 27.5332C30.6612 26.074 31.5791 25.1196 33.0346 25.072C34.735 25.0172 36.4392 25.0172 38.1397 25.072C39.5768 25.1159 40.5167 26.0923 40.5898 27.5368C40.6227 28.1548 40.5532 28.7802 40.5313 29.4019Z" fill="#0D527A"/>
<path d="M33.1334 37.5679C34.7717 37.5679 36.4063 37.5679 38.0447 37.5679C38.0739 38.409 38.0995 39.2501 38.1288 40.0912C37.7558 41.788 36.8781 42.6328 35.5287 42.5962C34.2049 42.5596 33.415 41.7624 33.0529 40.0912C33.0785 39.2501 33.1078 38.409 33.137 37.5679H33.1334Z" fill="#D2A980"/>
</g>
<defs>
<clipPath id="clip0_289_819">
<rect width="70.1514" height="70.1587" fill="white" transform="translate(0.513306)"/>
</clipPath>
</defs>
</svg>
