<svg width="63" height="63" viewBox="0 0 63 63" fill="none" xmlns="http://www.w3.org/2000/svg">
<rect x="0.672577" y="0.159302" width="62.2677" height="62.2677" rx="19.1593" fill="#EFCB0E"/>
<path d="M31.7326 31.4783C30.8301 31.9828 30.0781 31.9101 29.5768 31.2908C29.064 30.6579 29.145 29.9365 29.8412 29.1382C28.3594 26.459 28.0708 23.6419 29.1166 20.7405C29.9528 18.4236 31.4946 16.6648 33.6535 15.4779C37.9588 13.1105 43.3982 14.3153 46.3197 18.2624C49.2526 22.2254 48.8166 27.7375 45.316 31.1908C41.8428 34.6167 35.9831 35.1917 31.7337 31.4783H31.7326ZM42.5252 24.6971C42.5252 25.8008 42.5231 26.9035 42.5252 28.0071C42.5294 29.3236 42.4262 29.0845 43.6426 29.1403C44.1997 29.1656 44.3166 28.9487 44.3113 28.44C44.2892 26.1283 44.305 23.8167 44.2997 21.5051C44.2966 20.2055 44.444 20.3782 43.156 20.3413C42.6758 20.3277 42.5062 20.4814 42.5157 20.9669C42.541 22.2096 42.5241 23.4534 42.5241 24.6971H42.5252ZM40.7138 17.6653C39.9155 18.4973 39.2215 19.2355 38.5022 19.9485C38.4222 20.0275 38.1789 20.0159 38.0493 19.9601C37.5681 19.7505 37.1121 19.4799 36.6255 19.285C36.4454 19.2124 36.1347 19.1987 36.0063 19.3061C34.8625 20.2624 33.7388 21.2428 32.6362 22.2454C32.5235 22.3476 32.5888 22.6446 32.5709 22.852C32.7921 22.8699 33.0164 22.9142 33.2333 22.8942C33.3334 22.8847 33.4229 22.7488 33.5156 22.6677C34.3486 21.9421 35.1932 21.2291 36.0073 20.4825C36.2874 20.2255 36.516 20.2076 36.8288 20.3866C37.2089 20.6036 37.6176 20.7689 37.9988 20.9838C38.379 21.1975 38.6675 21.1544 38.9708 20.8226C39.6217 20.1107 40.302 19.4262 40.9729 18.7321C41.0834 18.6174 41.2077 18.5152 41.3889 18.3488C41.3731 18.7932 41.3815 19.1534 41.8101 19.1724C42.2714 19.1934 42.3019 18.8006 42.3346 18.4668C42.3778 18.0308 42.402 17.5926 42.4283 17.1556C42.4452 16.8628 42.3598 16.5816 42.0249 16.5985C41.3962 16.6311 40.7686 16.7091 40.1483 16.8186C40.0208 16.8407 39.8334 17.1029 39.8523 17.2262C39.8776 17.3873 40.0619 17.5463 40.2146 17.6569C40.2946 17.7148 40.4505 17.6674 40.7117 17.6674L40.7138 17.6653ZM39.2025 25.5639C39.2025 26.3695 39.1952 27.1752 39.2036 27.9798C39.2173 29.3036 39.0119 29.0971 40.3884 29.1372C40.8518 29.1509 40.996 28.9908 40.9908 28.5337C40.9708 26.7834 40.9918 25.032 40.9792 23.2817C40.9697 21.8726 41.2056 22.0811 39.7091 22.0485C39.3173 22.0401 39.1878 22.1854 39.1952 22.5698C39.2141 23.5671 39.2015 24.5655 39.2015 25.5639H39.2025ZM35.8672 26.4938C35.8672 26.9677 35.863 27.4406 35.8672 27.9145C35.882 29.332 35.6945 29.0971 37.1057 29.1372C37.5259 29.1488 37.6544 28.996 37.6481 28.5885C37.6281 27.4311 37.6544 26.2737 37.6376 25.1163C37.6197 23.802 37.9398 23.9083 36.3338 23.9083C36.002 23.9083 35.8599 24.0568 35.8651 24.3896C35.8757 25.091 35.8683 25.7924 35.8672 26.4938ZM32.5541 27.4163C32.5541 27.5733 32.5509 27.7312 32.5541 27.8881C32.5846 29.3267 32.2981 29.1024 33.8557 29.1351C34.2349 29.1424 34.3433 28.9718 34.336 28.6285C34.3233 28.0693 34.3381 27.509 34.3318 26.9498C34.3149 25.5639 34.5276 25.7555 33.1006 25.726C32.7026 25.7176 32.5161 25.8377 32.5477 26.2631C32.5762 26.6454 32.5541 27.0319 32.553 27.4174L32.5541 27.4163Z" fill="white"/>
<path d="M19.2427 47.2729C19.2427 46.018 19.2427 44.758 19.2427 43.4993C19.2427 43.1834 19.3097 42.8409 19.2098 42.5603C19.1226 42.3152 18.8712 42.0119 18.6399 41.9588C18.257 41.869 18.0156 42.1698 18.0042 42.5616C17.9827 43.2984 17.9903 44.0351 17.989 44.7732C17.9878 45.6111 17.989 46.4477 17.989 47.3222C17.3824 47.3222 16.8567 47.3412 16.3322 47.3172C15.8053 47.2931 15.5234 46.9823 15.5222 46.4591C15.5158 44.6266 15.5007 42.7941 15.5348 40.9617C15.5512 40.0606 16.0593 39.3365 16.8504 39.0243C17.9916 38.5731 19.1884 38.1978 20.3965 37.9969C22.368 37.6683 24.3483 37.8477 26.2781 38.3722C26.8973 38.5403 27.5103 38.8107 28.0587 39.1456C28.8031 39.5993 29.1797 40.3108 29.1734 41.2132C29.1608 42.9192 29.1747 44.6253 29.1671 46.3314C29.1633 47.0556 28.8979 47.3121 28.1737 47.3247C27.7125 47.3323 27.2499 47.326 26.7027 47.326C26.7027 46.2404 26.7027 45.1928 26.7027 44.1464C26.7027 43.6826 26.7052 43.22 26.7002 42.7562C26.6964 42.3152 26.5789 41.9259 26.0468 41.9398C25.5514 41.9525 25.4503 42.3303 25.4491 42.7436C25.4465 44.0288 25.4478 45.3128 25.4465 46.5981C25.4465 46.8066 25.4465 47.0138 25.4465 47.2742H19.2427V47.2729Z" fill="white"/>
<path d="M25.3998 33.0277C25.3998 34.3155 25.0952 35.3252 24.3622 36.1757C23.2413 37.4787 21.5314 37.5305 20.4003 36.2465C19.249 34.9398 19.0001 33.3866 19.5056 31.7563C19.915 30.4369 21.1952 29.8013 22.8293 29.9731C24.203 30.1172 25.166 31.0322 25.3543 32.3844C25.3922 32.6549 25.3935 32.9304 25.3998 33.0277Z" fill="white"/>
<path d="M27.4769 33.8405C26.9524 33.8289 26.4764 33.3434 26.4785 32.82C26.4796 32.2639 26.9798 31.79 27.5369 31.8174C28.0877 31.8437 28.5121 32.3029 28.4963 32.8537C28.4805 33.395 28.0098 33.8521 27.478 33.8405H27.4769Z" fill="white"/>
</svg>
