<svg width="63" height="63" viewBox="0 0 63 63" fill="none" xmlns="http://www.w3.org/2000/svg">
<rect x="0.663605" y="0.159302" width="62.2677" height="62.2677" rx="19.1593" fill="#21C931"/>
<path d="M17.9541 41.2409C23.1592 49.0722 33.7273 51.2012 41.5586 45.9961C49.3899 40.791 51.5189 30.2229 46.3138 22.3916C41.1088 14.5603 30.5406 12.4313 22.7093 17.6363C18.1269 20.6821 15.4969 25.564 15.1462 30.6594C15.1324 30.8601 14.8607 30.9279 14.7592 30.7542L10.6805 23.7727" stroke="white" stroke-width="2.2" stroke-linecap="round"/>
<rect x="18.7044" y="18.2001" width="27" height="27" rx="13.5" fill="white"/>
<path d="M36.2487 28.4719C36.0838 27.2008 34.6271 25.1471 32.0078 25.147C28.9643 25.147 27.6837 26.8358 27.4239 27.6802C27.0185 28.8097 27.0996 31.1319 30.6669 31.3851C35.1262 31.7017 36.9126 32.2291 36.6853 34.9634C36.4579 37.6976 33.9722 38.2884 32.0078 38.2249C30.0433 38.1618 26.8292 37.2576 26.7044 34.8256M31.6961 23.3668V25.1531M31.6961 38.2086V40.0334" stroke="#21C931" stroke-width="2.5" stroke-linecap="round"/>
</svg>
