<svg width="71" height="71" viewBox="0 0 71 71" fill="none" xmlns="http://www.w3.org/2000/svg">
<g clip-path="url(#clip0_289_805)">
<path d="M16.0026 54.463C16.9278 53.8669 17.5714 52.971 18.3723 52.2432C18.7636 51.8885 18.6429 51.4241 18.6466 50.9925C18.6539 46.2385 18.6466 41.4808 18.6502 36.7268C18.6575 28.963 22.8265 22.9547 30.1294 20.2705C30.9705 19.9633 30.923 19.6598 30.5243 19.0198C29.526 17.4107 28.6081 15.7541 27.6171 14.1451C27.1929 13.4539 27.3282 13.2711 28.1144 13.2747C33.1098 13.293 38.1089 13.2893 43.1043 13.2747C43.8064 13.2747 43.9819 13.4283 43.5797 14.0829C42.5704 15.7322 41.6342 17.4254 40.6139 19.0673C40.2372 19.678 40.186 19.9633 40.9723 20.2412C46.9477 22.3622 50.6339 26.5677 52.126 32.7041C52.4222 33.9182 52.5173 35.1652 52.5136 36.4196C52.5063 40.9725 52.5502 45.529 52.4844 50.082C52.4661 51.3253 52.6306 52.3749 53.6473 53.1684C53.2743 53.1831 52.8976 53.1977 52.5209 53.216C47.0282 50.2392 41.466 50.1588 35.8525 52.8503C35.3259 53.1026 34.8066 53.2087 34.2288 53.205C31.4898 53.1904 28.7507 53.1648 26.0117 53.2087C23.2616 53.2562 21.5721 55.7502 22.5558 58.237C22.9581 59.2536 23.7809 59.868 24.6915 60.464C21.2211 59.7363 18.2114 57.9371 15.0408 56.5475C15.0737 55.721 15.7173 55.1761 15.9989 54.4666L16.0026 54.463ZM36.7924 33.8597C36.7924 33.377 36.7777 32.8943 36.7997 32.4116C36.8143 32.108 36.6607 31.7167 37.0228 31.5375C37.4031 31.351 37.7285 31.6217 38.0065 31.8338C38.5221 32.225 38.9244 32.7114 39.1877 33.3294C39.6228 34.3424 40.5407 33.8378 41.1953 33.7793C41.9706 33.7098 41.5281 33.0515 41.4294 32.631C41.0052 30.8244 39.8861 29.6688 38.0869 29.241C37.2239 29.0362 36.562 28.7985 36.7887 27.6904C36.9862 26.7396 36.4559 26.5495 35.6075 26.5677C34.8249 26.586 34.1923 26.6372 34.3824 27.6465C34.5799 28.6851 34.0606 29.0289 33.1318 29.2373C31.0436 29.7054 29.6942 31.3803 29.5406 33.5233C29.398 35.5273 30.5097 37.8019 32.4077 38.2005C34.4592 38.632 34.536 39.773 34.3824 41.3309C34.3349 41.8099 34.3641 42.2963 34.3751 42.779C34.3897 43.5141 34.046 43.6238 33.4719 43.302C32.7843 42.918 32.3053 42.3475 31.9871 41.6161C31.5446 40.6068 30.656 41.2212 29.9721 41.1444C29.537 41.0968 29.5479 41.521 29.5882 41.8575C29.7893 43.5909 31.2375 45.3352 32.9745 45.6753C34.0862 45.8911 34.5799 46.3372 34.3897 47.4965C34.2325 48.4583 34.9566 48.3705 35.5673 48.3522C36.1378 48.3339 36.9386 48.5314 36.7814 47.5404C36.5656 46.2056 37.2824 45.8947 38.3978 45.6424C40.2738 45.2146 41.6525 43.1447 41.6342 41.0566C41.6159 38.9465 40.2372 36.9169 38.3173 36.5439C37.0813 36.3062 36.562 35.8162 36.7887 34.5728C36.8326 34.3388 36.796 34.0901 36.796 33.8487L36.7924 33.8597ZM22.2816 35.9003C22.2816 36.1416 22.2999 36.383 22.2816 36.6244C22.1938 37.6044 22.885 37.4801 23.4811 37.4728C24.0625 37.4655 24.739 37.6447 24.7061 36.6463C24.622 34.0279 25.3863 31.6655 26.9734 29.5847C27.7816 28.5242 26.637 28.2938 26.2311 27.8111C25.7922 27.2882 25.3644 27.6831 25.0572 28.0963C23.3384 30.4149 22.4132 33.0186 22.2852 35.9003H22.2816ZM30.7255 26.2569C30.2098 25.7047 30.4476 24.5016 29.4529 24.5454C28.8421 24.571 27.8913 24.9879 27.9462 25.8108C27.9864 26.3885 28.3997 27.237 29.1822 27.2406C29.7564 27.2406 30.4256 26.9663 30.7255 26.2569Z" fill="#86B53B"/>
<path d="M57.8162 53.1977C57.8345 51.9507 57.8564 50.7 57.8674 49.453C57.8747 48.2535 57.8674 47.0503 57.8674 45.7192C58.628 45.9386 59.0852 46.3921 59.5569 46.7834C60.0616 47.2003 60.3761 47.1527 60.6394 46.5457C62.552 42.1061 63.4845 37.513 63.0127 32.6602C62.4825 27.1785 60.5918 22.2379 57.1397 17.9556C52.3673 12.0387 46.1907 8.59381 38.6099 7.71249C32.0639 6.94818 26.0629 8.49508 20.5445 12.0058C19.8095 12.4738 19.4767 12.3788 19.0488 11.651C18.1273 10.0895 17.1509 8.5609 16.1306 7.06521C15.6844 6.40695 15.7759 6.07417 16.4414 5.65362C21.1808 2.64761 26.2933 0.742333 31.8957 0.193789C41.4989 -0.746048 50.1183 1.75165 57.6151 7.79294C64.5048 13.3442 68.692 20.574 70.1621 29.3214C71.431 36.8694 70.2864 44.0736 66.8416 50.9011C66.4649 51.6508 66.4539 52.1116 67.2109 52.5833C67.9167 53.0222 68.5457 53.5853 69.2917 54.1595C68.5567 54.7519 67.6607 54.6202 67.0134 55.0774C64.3548 55.6259 61.7803 56.4926 59.1839 57.2642C58.1856 57.5604 57.7138 57.5641 57.8345 56.3134C57.9332 55.2858 57.8345 54.2399 57.8199 53.2013L57.8162 53.1977Z" fill="#C6DB3C"/>
<path d="M15.0408 56.5438C18.2151 57.9334 21.2211 59.7363 24.6915 60.4604C23.7809 59.8643 22.9581 59.2499 22.5559 58.2333C21.5721 55.7466 23.2653 53.2525 26.0117 53.205C28.7507 53.1574 31.4898 53.1867 34.2289 53.2013C34.8067 53.2013 35.3223 53.0989 35.8525 52.8466C41.466 50.1587 47.0282 50.2355 52.5209 53.2123C52.5209 58.8404 52.5209 64.4684 52.5209 70.1001C43.6967 70.1074 34.8761 70.1513 26.0556 70.0928C24.0845 70.0782 22.1792 69.4894 20.3909 68.5861C15.8929 66.3225 11.3875 64.0808 6.88581 61.8281C3.61284 60.1898 3.13743 57.1801 5.73387 54.5983C5.87649 54.4593 5.98986 54.2911 6.11785 54.1375C7.90976 53.6182 9.57367 53.9437 11.2083 54.7958C12.4517 55.443 13.7609 55.9623 15.0372 56.5401L15.0408 56.5438ZM30.7474 61.6635C32.031 61.6635 33.3183 61.6123 34.5982 61.6818C35.571 61.733 35.6112 61.1991 35.5892 60.4823C35.5673 59.8241 35.677 59.2097 34.6531 59.2316C32.0457 59.2828 29.4346 59.2828 26.8272 59.2316C25.7923 59.2134 25.9239 59.8424 25.8983 60.4896C25.8691 61.2174 25.9349 61.733 26.8967 61.6818C28.1766 61.6123 29.4638 61.6635 30.7474 61.6635Z" fill="#FCC7A1"/>
<path d="M15.0408 56.5438C13.7609 55.966 12.4517 55.4467 11.212 54.7994C9.57733 53.9474 7.91342 53.6219 6.12151 54.1412C3.52873 49.954 1.71488 45.4779 0.95058 40.5885C-0.205018 33.1941 0.877441 26.1472 4.1943 19.4623C4.70993 18.4237 4.58559 17.8861 3.66404 17.3266C3.05333 16.9573 2.51576 16.4709 1.6966 15.8492C3.48119 15.3226 5.02808 14.8618 6.57497 14.4157C8.50585 13.8562 10.4404 13.304 12.3749 12.7627C12.7662 12.653 13.2891 12.3349 13.2891 13.165C13.2891 16.8658 13.2891 20.563 13.2891 24.3663C12.5578 24.2566 12.1665 23.836 11.7752 23.4776C11.1059 22.8633 10.7585 22.9839 10.4038 23.8177C7.64646 30.3015 7.22957 36.8877 9.41277 43.6165C10.7549 47.7561 13.0076 51.3326 15.9989 54.4703C15.7174 55.1834 15.0737 55.7246 15.0408 56.5511V56.5438Z" fill="#C6DB3C"/>
<path d="M52.5283 70.1001C52.5283 64.4721 52.5283 58.844 52.5283 53.2123C52.9049 53.1977 53.2779 53.1831 53.6546 53.1648C55.0442 53.1758 56.4339 53.1831 57.8199 53.1941C57.8345 54.2326 57.9332 55.2785 57.8345 56.3061C57.7175 57.5568 58.1856 57.5531 59.1839 57.2569C61.7804 56.4853 64.3512 55.6186 67.0135 55.0701C67.0171 59.7693 67.0135 64.4684 67.0391 69.1676C67.0427 69.8515 66.9403 70.155 66.1394 70.1477C61.6012 70.0965 57.0629 70.1075 52.5283 70.1001ZM58.5184 66.498C59.7105 66.5236 60.9429 65.3461 60.9795 64.1503C61.0161 62.9691 59.8458 61.7148 58.6537 61.6636C57.3884 61.6087 56.156 62.7899 56.145 64.0589C56.134 65.2547 57.3189 66.4725 58.5184 66.4944V66.498Z" fill="#375E8C"/>
<path d="M36.7924 33.8561C36.7924 34.0975 36.8289 34.3461 36.7851 34.5802C36.5547 35.8199 37.0776 36.3099 38.3137 36.5513C40.2336 36.9243 41.6122 38.9539 41.6305 41.0639C41.6452 43.1484 40.2701 45.2219 38.3941 45.6498C37.2787 45.9021 36.562 46.2129 36.7777 47.5477C36.9387 48.5388 36.1378 48.3413 35.5636 48.3596C34.9566 48.3779 34.2325 48.4656 34.3861 47.5038C34.5763 46.3409 34.0789 45.8984 32.9709 45.6827C31.2375 45.3426 29.7856 43.6019 29.5845 41.8648C29.5443 41.5284 29.5333 41.1042 29.9685 41.1517C30.6523 41.2285 31.5446 40.6105 31.9835 41.6235C32.3016 42.3549 32.7807 42.9217 33.4682 43.3093C34.0423 43.6311 34.3898 43.5214 34.3715 42.7864C34.3605 42.3037 34.3312 41.8173 34.3788 41.3382C34.5324 39.7767 34.4556 38.6357 32.404 38.2079C30.5061 37.8093 29.3944 35.531 29.537 33.5306C29.6906 31.384 31.04 29.7128 33.1281 29.2447C34.057 29.0362 34.5763 28.6961 34.3788 27.6539C34.1886 26.6446 34.8213 26.5934 35.6039 26.5751C36.4523 26.5532 36.9789 26.747 36.7851 27.6978C36.5583 28.8022 37.2202 29.0399 38.0833 29.2483C39.8825 29.6799 41.0052 30.8318 41.4257 32.6383C41.5245 33.0589 41.9706 33.7171 41.1917 33.7866C40.5371 33.8451 39.6192 34.3498 39.184 33.3368C38.9207 32.7188 38.5185 32.2324 38.0028 31.8411C37.7249 31.6327 37.3994 31.3584 37.0191 31.5449C36.6571 31.7241 36.8107 32.1154 36.796 32.4189C36.7741 32.9016 36.7887 33.3843 36.7887 33.8671L36.7924 33.8561ZM34.3715 33.878C34.3715 33.3185 34.3605 32.759 34.3715 32.1995C34.3934 31.3584 33.9911 31.3584 33.3951 31.6729C31.7056 32.5579 31.4642 34.3315 32.8685 35.6151C33.2232 35.9369 33.6218 36.3611 34.1082 36.1563C34.6019 35.9442 34.3166 35.3737 34.3605 34.9605C34.4007 34.6058 34.3678 34.2401 34.3678 33.8817L34.3715 33.878ZM36.7924 41.0274C36.7924 41.5869 36.807 42.1464 36.7924 42.7059C36.7595 43.664 37.2458 43.5726 37.8419 43.2289C39.6448 42.1976 39.6558 40.0327 37.8639 38.9758C37.1508 38.5553 36.7375 38.6357 36.7924 39.5865C36.8216 40.0656 36.796 40.5447 36.796 41.0274H36.7924Z" fill="#6C992A"/>
<path d="M22.2816 35.9003C22.4132 33.0186 23.3348 30.4148 25.0536 28.0963C25.3607 27.6831 25.7886 27.2845 26.2274 27.8111C26.6334 28.2938 27.7743 28.5279 26.9698 29.5847C25.3863 31.6655 24.6184 34.0316 24.7025 36.6463C24.7354 37.6446 24.0552 37.4618 23.4774 37.4728C22.8777 37.4801 22.1902 37.6044 22.2779 36.6243C22.2999 36.3866 22.2779 36.1416 22.2779 35.9003H22.2816Z" fill="#91BE49"/>
<path d="M30.7218 26.2533C30.422 26.9627 29.7527 27.2407 29.1786 27.237C28.396 27.2333 27.9828 26.3813 27.9425 25.8071C27.8877 24.988 28.8385 24.5711 29.4492 24.5418C30.4439 24.4979 30.2062 25.7011 30.7218 26.2533Z" fill="#91BE49"/>
<path d="M30.7474 61.6635C29.4638 61.6635 28.1766 61.6123 26.8966 61.6818C25.9349 61.733 25.869 61.2174 25.8983 60.4896C25.9239 59.8387 25.7959 59.2097 26.8272 59.2316C29.4346 59.2828 32.0456 59.2828 34.653 59.2316C35.6807 59.2097 35.5709 59.8241 35.5892 60.4823C35.6112 61.1991 35.5709 61.733 34.5982 61.6818C33.3183 61.6123 32.031 61.6635 30.7474 61.6635Z" fill="#FCB583"/>
<path d="M58.5147 66.498C57.3189 66.4724 56.1304 65.2547 56.1413 64.0625C56.1523 62.7899 57.3883 61.6123 58.65 61.6672C59.8385 61.7184 61.0124 62.9727 60.9758 64.1539C60.9392 65.3497 59.7069 66.5273 58.5147 66.5017V66.498Z" fill="#2B4C73"/>
<path d="M34.3715 33.878C34.3715 34.2364 34.4044 34.6021 34.3642 34.9568C34.3203 35.37 34.6055 35.9405 34.1118 36.1526C33.6254 36.3611 33.2268 35.9369 32.8721 35.6114C31.4678 34.3315 31.7055 32.5578 33.3987 31.6692C33.9948 31.3584 34.4007 31.3584 34.3751 32.1958C34.3605 32.7553 34.3751 33.3148 34.3751 33.8743L34.3715 33.878Z" fill="#85B53B"/>
<path d="M36.7924 41.031C36.7924 40.5519 36.8143 40.0692 36.7887 39.5901C36.7339 38.6393 37.1471 38.5552 37.8602 38.9794C39.6521 40.0399 39.6411 42.2012 37.8383 43.2325C37.2422 43.5726 36.7595 43.664 36.7887 42.7095C36.807 42.15 36.7887 41.5905 36.7887 41.031H36.7924Z" fill="#85B53B"/>
</g>
<defs>
<clipPath id="clip0_289_805">
<rect width="70.1587" height="70.1477" fill="white" transform="translate(0.504425)"/>
</clipPath>
</defs>
</svg>
