<svg width="71" height="67" viewBox="0 0 71 67" fill="none" xmlns="http://www.w3.org/2000/svg">
<g clip-path="url(#clip0_289_760)">
<path d="M25.1635 66.7065C24.0042 66.9259 22.8742 66.5748 21.7296 66.5236C17.0487 65.2145 13.5636 62.4827 11.5743 57.9773C10.6015 55.0884 10.2687 52.1628 11.1135 49.1787C11.801 46.436 13.3589 44.2272 15.3921 42.3366C16.0943 41.6856 16.9171 41.1663 17.685 40.5849C17.8277 40.5264 17.9739 40.4642 18.1166 40.4057C19.8207 39.6341 21.5504 38.9466 23.4703 38.9795C24.6296 39.0636 25.7852 39.1477 26.9408 39.2318C27.0907 39.2318 27.2407 39.2355 27.3906 39.2391C27.4162 39.6085 27.6978 39.7401 27.983 39.8425C30.126 40.5958 31.8996 41.8794 33.4172 43.5507C36.4342 46.8712 37.535 50.8646 36.756 55.1432C35.7065 60.9212 32.1227 64.6732 26.4361 66.3189C26.1875 66.392 25.8986 66.3554 25.8218 66.6955C25.6608 66.6955 25.4963 66.6955 25.3354 66.6955L25.244 66.6516L25.1635 66.7138V66.7065ZM18.8077 61.371C18.9394 61.6636 19.1734 61.8098 19.4916 61.8281C19.8719 62.1938 20.3327 62.4059 20.8483 62.4973C20.9214 62.4973 20.9982 62.501 21.0714 62.5047C21.2908 62.64 21.4956 62.8484 21.7333 62.8996C25.4268 63.6968 28.8095 62.9764 31.5888 60.4129C36.533 55.86 35.904 47.9646 30.3271 44.2162C27.226 42.1318 23.8763 41.7222 20.3875 43.2947C20.0621 43.2947 19.839 43.4592 19.6964 43.7408C19.5172 43.7408 19.3563 43.7847 19.2575 43.9529C18.943 43.9785 18.7053 44.1211 18.5773 44.4174C17.6777 44.6587 17.1877 45.4267 16.6355 46.0557C12.8725 50.3233 13.3552 56.8547 17.4473 60.2556C17.5168 60.3251 17.5863 60.3946 17.6594 60.4641C17.963 60.8663 18.2372 61.3015 18.8077 61.371Z" fill="#FCCC56"/>
<path d="M26.9444 39.2281C25.7888 39.144 24.6296 39.0599 23.474 38.9758C23.4411 37.63 23.3826 36.2879 23.3789 34.9422C23.3789 32.6602 24.4248 31.6034 26.6702 31.5997C32.236 31.5924 37.8056 31.5997 43.3715 31.5997C43.7043 31.5997 44.0517 31.5302 44.3662 31.7167C44.538 33.0149 44.6185 34.3205 44.5783 35.6333C44.5124 37.9482 43.4666 38.9977 41.1883 38.9977C36.8694 38.9977 32.5469 38.9941 28.228 39.005C27.7965 39.005 27.3174 38.8441 26.9444 39.2281Z" fill="#F4B947"/>
<path d="M61.7404 11.2086C62.4718 11.1537 63.0422 10.6783 63.7115 10.4479C65.4266 9.86647 67.1453 9.69825 68.9153 10.1334C70.0197 10.404 70.272 10.8283 69.91 11.9071C68.5277 16.0577 64.8817 18.8589 60.4824 19.093C59.8278 19.1295 59.6376 19.3453 59.6669 19.9597C59.7108 20.9361 59.6961 21.9125 59.7034 22.8925C59.6193 22.8852 59.5316 22.8779 59.4474 22.8706C59.4548 21.9344 59.4145 20.9982 59.4804 20.0657C59.5425 19.1917 59.2171 18.8041 58.3394 18.8736C57.9664 18.9028 57.5934 18.8918 57.2167 18.8845C56.5585 18.8736 56.3061 19.1844 56.2842 19.8463C56.2586 20.7313 56.4817 21.6346 56.1379 22.5013C56.116 21.6382 56.0684 20.7752 56.0831 19.9158C56.0904 19.3782 55.9843 19.1222 55.3517 19.093C50.711 18.8736 47.7196 16.3466 45.9204 12.2252C45.306 10.8173 45.6059 10.4114 47.1345 10.0786C49.8553 9.48615 52.2359 10.3309 54.5288 11.662C55.6735 12.7226 56.7888 13.8014 57.5641 15.191C57.853 15.7066 58.0907 15.2824 58.2699 14.9899C58.8952 13.9586 59.6522 13.0224 60.603 12.2947C61.0126 11.9802 61.2357 11.5999 61.4771 11.1976C61.5429 11.2488 61.6051 11.2963 61.6709 11.3475L61.744 11.1976L61.7367 11.2086H61.7404Z" fill="#9BCC69"/>
<path d="M59.4511 22.8743C59.5389 22.8816 59.623 22.8889 59.7071 22.8962C62.3474 22.9182 64.9841 22.9401 67.6244 22.9657C68.0486 24.3663 67.8255 25.8071 67.8365 27.226C67.8548 29.1898 66.8016 30.1882 64.8268 30.1882C59.4036 30.1882 53.9803 30.1882 48.557 30.1955C48.1255 30.1955 47.6428 30.0273 47.2771 30.4295C46.9114 30.1004 46.8346 29.6506 46.8273 29.2045C46.8054 27.9318 46.7688 26.6519 46.8273 25.3793C46.8968 23.9092 47.9061 22.9584 49.3799 22.9328C51.6289 22.8926 53.8779 22.8962 56.1306 22.8852C57.2387 22.8852 58.3467 22.8779 59.4548 22.8743H59.4511Z" fill="#F4B845"/>
<path d="M46.831 33.7866C47.065 32.7846 47.6428 32.0935 48.6302 31.7643C54.9604 31.7643 61.2942 31.7643 67.6244 31.768C67.7926 32.3458 67.8365 32.9346 67.8621 33.538C68.0669 38.4602 67.3428 39.1294 62.4498 39.0271C57.352 38.921 52.2506 39.0271 47.1491 39.038C47.0321 38.7528 46.9187 38.4675 46.8017 38.1823C46.8127 36.7159 46.82 35.2531 46.831 33.7866Z" fill="#E1A439"/>
<path d="M47.0979 65.2109C47.0101 64.9878 46.9187 64.7611 46.8309 64.538C46.8309 63.0569 46.8309 61.5758 46.8309 60.0948C47.1198 59.0928 47.7891 58.4236 48.6996 57.9701C55.0079 57.9737 61.3161 57.9811 67.6244 57.9847C67.9937 59.4621 67.8548 60.9651 67.8401 62.4608C67.8255 64.0187 66.7357 65.2621 65.0097 65.2401C59.0415 65.1597 53.0697 65.2109 47.1015 65.2109H47.0979Z" fill="#F4B845"/>
<path d="M61.4807 11.1976C61.2393 11.6035 61.0199 11.9802 60.6067 12.2947C59.6559 13.0224 58.8989 13.9586 58.2736 14.9898C58.0944 15.2861 57.8567 15.7066 57.5678 15.191C56.7925 13.8013 55.6735 12.7262 54.5325 11.662C53.7133 8.95952 53.6365 6.28995 54.9201 3.6862C55.4906 2.53425 56.2586 1.53225 57.1362 0.592412C57.8603 -0.186519 58.4564 -0.215775 59.1841 0.592412C61.7001 3.36804 62.6985 6.53496 61.7915 10.2321C61.7148 10.5466 61.5465 10.8721 61.7404 11.2085L61.7477 11.1976C61.6599 11.1976 61.5685 11.1976 61.4807 11.1976Z" fill="#8CB759"/>
<path d="M0.68019 48.1109C0.2121 47.6611 0.0877637 47.0723 0.069479 46.4689C0.0402233 45.3426 0.0219386 44.2162 0.069479 43.0935C0.135304 41.521 1.24702 40.3874 2.80488 40.3801C7.23345 40.3618 11.6584 40.3984 16.0869 40.413C13.3369 42.0842 11.0586 44.1943 9.82257 47.2515C9.58487 47.8366 9.0985 47.811 8.5975 47.811C6.3375 47.8073 4.08116 47.8037 1.82116 47.811C1.42255 47.811 0.976404 47.6903 0.68019 48.1072V48.1109Z" fill="#F4B946"/>
<path d="M0.3913 65.2109C-0.182841 63.4153 -0.0329064 61.5941 0.25965 59.7876C0.409585 58.8587 1.21046 58.4016 1.96013 57.9628C4.56388 57.9701 7.16764 57.9811 9.77504 57.9884C9.73847 58.4272 9.94692 58.7892 10.1444 59.1549C11.2817 61.276 12.8323 63.024 14.8436 64.3698C15.1471 64.5745 15.5896 64.6843 15.7176 65.2109H0.3913Z" fill="#F4B845"/>
<path d="M0.694835 56.9168C0.201147 56.4414 0.0694963 55.8307 0.0621824 55.1834C0.0512115 54.101 0.0256128 53.0149 0.0694963 51.9324C0.120694 50.7329 0.574156 49.7638 1.83581 49.3835C2.45383 49.2336 3.07186 49.1495 3.71182 49.1604C5.50739 49.186 7.29929 49.1714 9.09486 49.1714C8.53169 51.2998 8.45123 53.4574 8.90835 55.6003C9.10217 56.5073 8.75476 56.6389 8.01606 56.6316C5.95354 56.6133 3.89101 56.6206 1.82849 56.6316C1.43354 56.6316 0.987392 56.5036 0.691178 56.9205L0.694835 56.9168Z" fill="#E1A439"/>
<path d="M47.0979 65.2108C53.066 65.2108 59.0379 65.1596 65.006 65.2401C66.7321 65.262 67.8219 64.0187 67.8365 62.4608C67.8475 60.9688 67.9864 59.4621 67.6207 57.9847C67.8255 57.9847 68.0267 57.9847 68.2314 57.9883C69.6174 58.5808 70.1879 59.6449 70.1221 61.1297C70.0782 62.0695 70.1294 63.013 70.1111 63.9528C70.0745 65.5985 68.9775 66.7358 67.3428 66.7431C61.3929 66.7614 55.4467 66.7577 49.4969 66.7431C48.3961 66.7431 47.5367 66.2896 47.0979 65.2108Z" fill="#EAAD42"/>
<path d="M67.6244 31.768C61.2942 31.768 54.9604 31.768 48.6302 31.7643C48.3084 31.1865 47.4819 31.1244 47.2771 30.4295C47.6428 30.0309 48.1255 30.1955 48.557 30.1955C53.9803 30.1845 59.4036 30.1882 64.8268 30.1882C66.8016 30.1882 67.8548 29.1898 67.8365 27.226C67.8255 25.8035 68.0486 24.3663 67.6244 22.9657C69.0725 23.0608 70.0453 24.0189 70.1002 25.4853C70.144 26.6483 70.0928 27.8185 70.1111 28.9814C70.1331 30.3308 69.1128 30.9817 68.2936 31.768C68.0705 31.768 67.8475 31.768 67.6244 31.768Z" fill="#E9AB3C"/>
<path d="M68.2315 57.992C68.0267 57.992 67.8256 57.992 67.6208 57.9883C61.3125 57.9846 55.0043 57.9773 48.696 57.9737C48.195 57.5678 47.4673 57.4068 47.2552 56.6755C47.343 56.6096 47.4344 56.478 47.5148 56.4853C53.1392 56.8144 58.7673 56.5694 64.3917 56.606C66.5602 56.6206 67.8073 55.5711 67.8329 53.8706C67.8548 52.3017 67.9901 50.7219 67.6244 49.1714C67.8146 49.1714 68.0011 49.1714 68.1912 49.175C69.6101 49.8296 70.2501 50.9267 70.1185 52.4956C70.0673 53.088 70.0563 53.695 70.1185 54.2875C70.305 55.9514 69.7052 57.1911 68.2278 57.9956L68.2315 57.992Z" fill="#D89A37"/>
<path d="M68.1912 49.1714C68.0011 49.1714 67.8146 49.1714 67.6244 49.1678C61.989 49.1678 56.35 49.1714 50.7146 49.1605C49.9979 49.1605 49.2957 49.2007 48.6009 49.3726C48.3632 48.6558 47.3502 48.6375 47.2149 47.8257C53.088 47.822 58.9611 47.8184 64.8378 47.8074C66.5054 47.8037 67.8146 46.6481 67.8365 45.0757C67.8548 43.5032 68.0084 41.9197 67.6207 40.3618C67.8219 40.3545 68.0267 40.3436 68.2278 40.3362C69.7125 41.192 70.3305 42.4609 70.1221 44.1651C70.0599 44.6807 70.0746 45.2146 70.1221 45.7339C70.2647 47.3283 69.6686 48.4912 68.1949 49.1751L68.1912 49.1714Z" fill="#E9AB3C"/>
<path d="M68.2241 40.3398C68.023 40.3472 67.8182 40.3581 67.6171 40.3654C61.3417 40.3728 55.0664 40.3801 48.7911 40.3874C48.1109 40.0985 47.4709 39.762 47.1454 39.038C52.2469 39.027 57.3483 38.9209 62.4461 39.027C67.3391 39.1294 68.0632 38.4602 67.8584 33.5379C67.8328 32.9345 67.7926 32.3457 67.6207 31.7679C67.8438 31.7679 68.0669 31.7679 68.29 31.7679C69.5553 32.2653 70.1257 33.2124 70.1075 34.5509C70.0928 35.4834 70.0819 36.4196 70.1075 37.3521C70.155 38.7856 69.5626 39.795 68.2168 40.3362L68.2241 40.3398Z" fill="#D89A37"/>
<path d="M0.391296 65.2108H15.7139C15.5896 64.6842 15.1434 64.5708 14.8399 64.3697C12.8323 63.024 11.2817 61.2759 10.1407 59.1549C9.94692 58.7892 9.73481 58.4272 9.77138 57.9883C10.3748 57.9847 10.9745 57.9774 11.5779 57.9737C13.5673 62.4827 17.0524 65.2108 21.7333 66.52C21.2871 66.7833 20.7934 66.7504 20.3034 66.7504C14.5839 66.7504 8.8608 66.7394 3.14133 66.7614C1.89796 66.765 0.939839 66.3883 0.391296 65.2108Z" fill="#EAAD42"/>
<path d="M46.8273 60.0947C46.8273 61.5758 46.8273 63.0569 46.8273 64.5379C46.1873 66.253 44.9256 66.8016 43.1484 66.776C37.8312 66.6992 32.5103 66.7248 27.1894 66.7102C28.5352 65.9349 30.0821 65.6679 31.4644 64.9841C31.8008 65.3425 32.2397 65.1998 32.6346 65.2035C35.5638 65.2145 38.4931 65.2108 41.4223 65.2108C43.3568 65.2108 44.527 64.0771 44.5636 62.1207C44.5892 60.7383 44.6331 59.3487 44.3442 57.981C44.5014 57.981 44.6587 57.9737 44.8196 57.9737C45.8435 58.343 46.3665 59.1915 46.8236 60.0984L46.8273 60.0947Z" fill="#D89A37"/>
<path d="M31.4681 64.9841C30.0858 65.6679 28.5352 65.9349 27.1931 66.7102C26.736 66.8016 26.2789 66.8162 25.8254 66.6846C25.9022 66.3445 26.1874 66.3811 26.4398 66.3079C32.13 64.6586 35.7102 60.9066 36.7597 55.1323C37.5386 50.8536 36.4379 46.8602 33.4209 43.5397C31.9033 41.8685 30.1296 40.5886 27.9867 39.8316C27.7014 39.7328 27.4198 39.6012 27.3942 39.2282C27.8623 39.1733 28.2573 39.433 28.6925 39.528C29.6323 39.7365 30.4478 40.3765 31.4608 40.3509C31.4791 40.6836 31.6729 40.8811 31.9508 41.042C34.6387 42.6182 36.3574 45.0062 37.5752 47.8037C37.7215 48.2572 37.7032 48.7655 38.025 49.1605C38.6467 51.6435 38.5662 54.1266 38.025 56.6097C37.6995 57.0046 37.5935 57.4727 37.5715 57.9664C36.1782 60.8591 34.2035 63.247 31.4717 64.9731L31.4681 64.9841Z" fill="#EBB751"/>
<path d="M31.4571 40.3582C30.4441 40.3838 29.6323 39.7438 28.6888 39.5353C28.2536 39.4403 27.8587 39.1806 27.3906 39.2355C27.2406 39.2355 27.0907 39.2318 26.9408 39.2282C27.3138 38.8442 27.7928 39.0087 28.2244 39.0051C32.5432 38.9941 36.8657 38.9978 41.1846 38.9978C43.4629 38.9978 44.5051 37.9482 44.5746 35.6334C44.6112 34.3205 44.5344 33.0186 44.3625 31.7168C45.7924 31.6802 46.2751 32.7773 46.8273 33.7866C46.8163 35.253 46.809 36.7158 46.798 38.1823C46.4908 39.2464 45.6205 39.8535 44.8635 40.552C44.6916 40.4861 44.5161 40.4203 44.3442 40.3545C40.0473 40.3545 35.7504 40.3545 31.4534 40.3545L31.4571 40.3582Z" fill="#E9AB3C"/>
<path d="M11.5779 57.9737C10.9745 57.9773 10.3748 57.9846 9.77138 57.9883C7.16763 57.981 4.56388 57.9737 1.95647 57.9627C1.5542 57.5897 0.92155 57.4983 0.691162 56.9131C0.987375 56.4963 1.43352 56.6279 1.82847 56.6242C3.891 56.6133 5.95352 56.6096 8.01604 56.6242C8.75475 56.6316 9.10216 56.4999 8.90834 55.593C8.45122 53.45 8.52802 51.2924 9.09484 49.1641C9.76772 49.1641 10.4406 49.1677 11.1135 49.1714C10.2687 52.1555 10.5979 55.081 11.5743 57.97L11.5779 57.9737Z" fill="#D89A37"/>
<path d="M11.1171 49.1751C10.4442 49.1751 9.77137 49.1714 9.09849 49.1678C7.30292 49.1678 5.50736 49.1824 3.71545 49.1568C3.07183 49.1495 2.4538 49.2299 1.83944 49.3799C1.7663 48.6704 0.808174 48.7692 0.683838 48.1109C0.980051 47.694 1.4262 47.8184 1.82481 47.8147C4.08481 47.8074 6.34115 47.8074 8.60114 47.8147C9.10215 47.8147 9.58852 47.8403 9.82622 47.2552C11.0623 44.1943 13.3406 42.0879 16.0906 40.4167C16.6208 40.4167 17.1511 40.413 17.685 40.4094C17.685 40.4679 17.685 40.5227 17.6887 40.5812C16.9207 41.1627 16.0979 41.682 15.3958 42.3329C13.3625 44.2236 11.8046 46.4324 11.1171 49.1751Z" fill="#E9AB3C"/>
<path d="M59.4511 22.8743C58.343 22.8743 57.235 22.8816 56.1269 22.8853C56.1342 22.7609 56.1379 22.6329 56.1452 22.5086C56.489 21.6419 56.2659 20.7386 56.2915 19.8536C56.3098 19.1917 56.5658 18.8809 57.224 18.8919C57.597 18.8992 57.9737 18.9101 58.3467 18.8809C59.2244 18.8114 59.5498 19.199 59.4877 20.0731C59.4218 21.0056 59.4621 21.9418 59.4548 22.8779L59.4511 22.8743Z" fill="#688F31"/>
<path d="M17.6887 40.5812C17.6887 40.5227 17.685 40.4679 17.685 40.4094C17.8313 40.4094 17.9776 40.4057 18.1202 40.402C17.9776 40.4605 17.8313 40.5227 17.6887 40.5812Z" fill="#F4B946"/>
<path d="M25.1635 66.7065L25.2439 66.6443L25.3354 66.6882L25.2549 66.7248L25.1635 66.7065Z" fill="#EBB751"/>
<path d="M20.8519 62.4974C20.3326 62.4059 19.8755 62.1938 19.4952 61.8281C19.4733 61.371 19.1478 61.3637 18.8114 61.371C18.7199 60.7018 18.3067 60.4385 17.6631 60.4641C17.5936 60.3946 17.5241 60.3251 17.451 60.2557C17.5168 59.7912 17.2498 59.4987 16.9682 59.1732C14.1414 55.8929 14.0244 50.4404 16.5733 46.9261C17.2096 46.052 18.2628 45.5254 18.581 44.4137C18.9211 44.421 19.2465 44.4137 19.2612 43.9493C19.3599 43.7811 19.5208 43.7408 19.7 43.7372C20.0291 43.7408 20.3619 43.7518 20.3912 43.291C23.8799 41.7186 27.2297 42.1281 30.3308 44.2126C35.9076 47.961 36.5366 55.8563 31.5924 60.4092C28.8095 62.9728 25.4268 63.6932 21.7369 62.896C21.4992 62.8448 21.2944 62.6363 21.075 62.501C21.0019 62.3767 20.9287 62.3657 20.8519 62.4937V62.4974ZM27.0541 50.5245C27.6575 50.4843 28.1914 50.2466 28.4877 49.6505C28.8387 48.9447 28.7473 48.2718 28.2536 47.6611C27.8184 47.1272 27.237 46.7725 26.6555 46.4287C26.363 46.2568 26.0741 46.1252 26.0448 45.701C25.99 44.9147 25.5401 44.5015 24.7502 44.4174C23.9091 44.326 23.346 44.7246 23.0717 45.4523C22.845 46.0557 22.461 46.3885 21.9344 46.7396C20.5192 47.6794 19.7585 49.069 19.9816 50.7768C20.19 52.3786 21.0421 53.5634 22.7353 53.9693C23.463 54.1449 24.1724 54.4009 24.8965 54.5801C25.4012 54.7044 25.8729 54.8178 25.8108 55.487C25.7486 56.1635 25.222 56.3171 24.6917 56.3829C23.9786 56.4707 23.5179 56.0026 23.0424 55.5565C22.3586 54.9128 21.6236 54.8763 20.9434 55.5418C20.2961 56.1708 20.1791 56.9351 20.7239 57.6812C21.1189 58.2224 21.565 58.7856 22.1904 59.0562C22.6292 59.2463 22.7791 59.4914 22.9291 59.9229C23.1887 60.6616 23.697 61.1845 24.6003 61.1589C25.4524 61.1333 25.9168 60.7274 26.0631 59.9046C26.1545 59.389 26.5787 59.2024 26.9737 58.983C28.4694 58.1566 29.1934 56.8218 29.1093 55.1835C29.0216 53.4245 28.1037 52.1482 26.3191 51.6435C25.5621 51.4314 24.8088 51.212 24.0481 51.0255C23.5837 50.9121 23.3277 50.6854 23.3277 50.1771C23.3277 49.6651 23.6385 49.442 24.0445 49.2811C24.7173 49.0178 25.2074 49.3689 25.6499 49.8004C26.0375 50.1771 26.4434 50.4879 27.0505 50.5282L27.0541 50.5245Z" fill="#F4B845"/>
<path d="M18.5883 44.4174C18.2701 45.5291 17.2169 46.0557 16.5806 46.9297C14.0281 50.444 14.1487 55.8965 16.9756 59.1768C17.2572 59.5023 17.5241 59.7949 17.4583 60.2593C13.3662 56.8583 12.8834 50.327 16.6464 46.0593C17.1986 45.434 17.6887 44.666 18.5883 44.421V44.4174Z" fill="#E9AB3C"/>
<path d="M17.6667 60.4677C18.3104 60.4385 18.72 60.7054 18.815 61.3747C18.2482 61.3088 17.9703 60.87 17.6667 60.4677Z" fill="#E9AB3C"/>
<path d="M19.2648 43.9529C19.2465 44.4137 18.921 44.4283 18.5846 44.4174C18.7126 44.1212 18.9503 43.9785 19.2648 43.9529Z" fill="#E9AB3C"/>
<path d="M20.3948 43.2947C20.3656 43.7555 20.0328 43.7445 19.7037 43.7408C19.8463 43.4592 20.0694 43.2947 20.3948 43.2947Z" fill="#E9AB3C"/>
<path d="M18.8113 61.371C19.1441 61.3637 19.4696 61.371 19.4952 61.8281C19.177 61.8098 18.9466 61.6636 18.8113 61.371Z" fill="#E9AB3C"/>
<path d="M20.8519 62.4973C20.9287 62.3693 21.0055 62.3766 21.075 62.5046C21.0019 62.5046 20.9251 62.501 20.8519 62.4973Z" fill="#E9AB3C"/>
<path d="M61.4807 11.1976C61.5685 11.1976 61.6599 11.1976 61.7477 11.1976C61.7221 11.2488 61.6965 11.2964 61.6745 11.3476C61.6087 11.2964 61.5465 11.2488 61.4807 11.1976Z" fill="#F6F6F6"/>
<path d="M44.8708 40.552C45.6278 39.8535 46.4945 39.2464 46.8017 38.1823C46.9187 38.4675 47.0321 38.7527 47.1491 39.038C47.4746 39.7584 48.1146 40.0948 48.7948 40.3874C47.8878 40.8994 47.065 41.4918 46.8273 42.5998C46.3446 41.7551 46.0082 40.7714 44.8708 40.5556V40.552Z" fill="#F5F0E8"/>
<path d="M46.8273 60.0947C46.3702 59.1878 45.8509 58.343 44.8233 57.97C45.807 57.5165 46.3628 56.6754 46.8236 55.7466C46.9333 56.0721 46.9699 56.4268 47.2551 56.6718C47.4673 57.4032 48.1913 57.5604 48.696 57.97C47.7854 58.4235 47.1162 59.0927 46.8273 60.0947Z" fill="#F5F0E8"/>
<path d="M47.2551 56.6755C46.9699 56.4342 46.9333 56.0758 46.8236 55.7503C46.8236 54.2912 46.82 52.8357 46.8163 51.3766C47.0979 50.4331 47.5477 49.6396 48.5972 49.3763C49.2921 49.2007 49.9942 49.1605 50.711 49.1642C56.3463 49.1751 61.9854 49.1715 67.6207 49.1715C67.9901 50.7257 67.8548 52.3055 67.8292 53.8707C67.8036 55.5711 66.5566 56.6207 64.388 56.6061C58.7636 56.5695 53.1355 56.8145 47.5111 56.4854C47.427 56.4817 47.3356 56.6097 47.2515 56.6755H47.2551Z" fill="#E1A439"/>
<path d="M46.8273 42.5962C47.065 41.4882 47.8878 40.8957 48.7947 40.3838C55.0701 40.3764 61.3454 40.3691 67.6207 40.3618C68.0084 41.9197 67.8548 43.5031 67.8365 45.0756C67.8182 46.6481 66.509 47.8037 64.8378 47.8074C58.9647 47.822 53.0916 47.822 47.2149 47.8257C47.0833 47.5404 46.9516 47.2552 46.8163 46.9699C46.8163 45.5108 46.8236 44.0553 46.8273 42.5962Z" fill="#F4B845"/>
<path d="M46.8163 46.9699C46.948 47.2552 47.0833 47.5404 47.215 47.8256C47.3466 48.6375 48.3632 48.6558 48.5973 49.3725C47.5477 49.6358 47.0979 50.4294 46.8163 51.3729C46.4104 50.3928 45.7814 49.6212 44.8014 49.1641C45.8217 48.7508 46.4214 47.9536 46.8163 46.9699Z" fill="#F5F0E8"/>
<path d="M31.4681 64.9841C34.1998 63.258 36.1709 60.8663 37.5679 57.9774C39.8279 57.9774 42.0879 57.9774 44.3515 57.9774C44.6404 59.3451 44.5965 60.7347 44.5709 62.117C44.5344 64.0735 43.3641 65.2072 41.4296 65.2072C38.5004 65.2072 35.5712 65.2108 32.642 65.1998C32.247 65.1998 31.8045 65.3425 31.4717 64.9804L31.4681 64.9841Z" fill="#E1A439"/>
<path d="M44.3515 57.981C42.0916 57.981 39.8316 57.981 37.5679 57.981C37.5898 57.4873 37.6922 57.0192 38.0214 56.6243C39.038 56.6243 40.051 56.6499 41.0676 56.6206C43.4739 56.5511 44.5454 55.5052 44.571 53.2087C44.5856 51.8629 44.6441 50.5098 44.3442 49.1787C44.4978 49.1787 44.6478 49.175 44.8014 49.1714C45.7814 49.6285 46.4141 50.4001 46.8163 51.3802C46.8163 52.8393 46.82 54.2948 46.8236 55.7539C46.3629 56.6791 45.807 57.5202 44.8233 57.9773C44.666 57.9773 44.5088 57.9846 44.3479 57.9846L44.3515 57.981Z" fill="#E9AB3C"/>
<path d="M31.4571 40.3582C35.754 40.3582 40.0509 40.3582 44.3479 40.3582C44.5417 41.7259 44.6148 43.0972 44.5746 44.4795C44.5051 46.7615 43.4336 47.811 41.159 47.8147C39.9632 47.8147 38.7673 47.8147 37.5715 47.8147C36.3538 45.0135 34.635 42.6291 31.9471 41.053C31.6692 40.8884 31.4754 40.6946 31.4571 40.3618V40.3582Z" fill="#E1A439"/>
<path d="M44.3442 49.1751C44.6441 50.5062 44.5856 51.8593 44.5709 53.2051C44.5453 55.5016 43.4702 56.5475 41.0676 56.617C40.0546 56.6463 39.038 56.6207 38.0213 56.6207C38.5626 54.1376 38.643 51.6545 38.0213 49.1678C40.1277 49.1678 42.2378 49.1678 44.3442 49.1678V49.1751Z" fill="#F4B845"/>
<path d="M44.3442 49.1751C42.2378 49.1751 40.1277 49.1751 38.0213 49.1751C37.7032 48.7801 37.7215 48.2718 37.5715 47.8183C38.7674 47.8183 39.9632 47.8183 41.159 47.8183C43.4336 47.8183 44.5015 46.7651 44.5746 44.4832C44.6185 43.1009 44.5417 41.7295 44.3479 40.3618C44.5197 40.4276 44.6953 40.4935 44.8672 40.5593C46.0045 40.7751 46.3409 41.7588 46.8236 42.6035C46.8236 44.0627 46.8163 45.5181 46.8127 46.9772C46.4177 47.9646 45.818 48.7618 44.7977 49.1714C44.6441 49.1714 44.4941 49.1751 44.3406 49.1787L44.3442 49.1751Z" fill="#D89A37"/>
<path d="M27.0542 50.5245C26.4508 50.4843 26.0412 50.1698 25.6536 49.7968C25.2111 49.3653 24.721 49.0142 24.0481 49.2775C23.6422 49.4384 23.3314 49.6615 23.3314 50.1734C23.3314 50.6818 23.5874 50.9085 24.0518 51.0219C24.8124 51.2084 25.5694 51.4241 26.3228 51.6399C28.1074 52.1445 29.0253 53.4208 29.113 55.1798C29.1935 56.8181 28.4731 58.1566 26.9774 58.9794C26.5788 59.1988 26.1582 59.3853 26.0668 59.9009C25.9205 60.7201 25.4524 61.1297 24.604 61.1553C23.7007 61.1809 23.1888 60.6579 22.9328 59.9192C22.7828 59.4877 22.6329 59.2427 22.1941 59.0525C21.5687 58.7819 21.1226 58.2224 20.7276 57.6775C20.1827 56.9315 20.2998 56.1709 20.947 55.5382C21.6272 54.8763 22.3623 54.9092 23.0461 55.5528C23.5179 55.999 23.9823 56.4671 24.6954 56.3793C25.2257 56.3135 25.7523 56.1635 25.8145 55.4833C25.8766 54.8141 25.4049 54.7008 24.9002 54.5764C24.1725 54.3972 23.4667 54.1412 22.739 53.9657C21.0458 53.5598 20.1937 52.3749 19.9853 50.7732C19.7622 49.0654 20.5228 47.6757 21.9381 46.7359C22.4647 46.3848 22.8487 46.0557 23.0754 45.4487C23.346 44.7209 23.9092 44.3223 24.7539 44.4137C25.5438 44.4979 25.9936 44.9147 26.0485 45.6973C26.0778 46.1215 26.3667 46.2495 26.6592 46.4251C27.2443 46.7688 27.8258 47.1199 28.2573 47.6575C28.751 48.2682 28.8424 48.9447 28.4913 49.6468C28.1951 50.2429 27.6612 50.4806 27.0578 50.5209L27.0542 50.5245Z" fill="#DAA33B"/>
</g>
<defs>
<clipPath id="clip0_289_760">
<rect width="70.1587" height="66.7833" fill="white"/>
</clipPath>
</defs>
</svg>
