<svg width="63" height="63" viewBox="0 0 63 63" fill="none" xmlns="http://www.w3.org/2000/svg">
<rect x="0.159302" y="0.159302" width="62.2677" height="62.2677" rx="19.1593" fill="#0071E4"/>
<path d="M18.0244 31.7721C18.0244 25.3743 18.0244 22.1754 19.7156 20.0538C19.9557 19.7526 20.2176 19.472 20.4988 19.2147C22.4789 17.4026 25.4646 17.4026 31.4359 17.4026C37.4071 17.4026 40.3928 17.4026 42.3729 19.2147C42.6541 19.472 42.916 19.7526 43.1561 20.0538C44.8474 22.1754 44.8474 25.3743 44.8474 31.7721C44.8474 38.1699 44.8474 41.3688 43.1561 43.4903C42.916 43.7916 42.6541 44.0722 42.3729 44.3295C40.3928 46.1416 37.4071 46.1416 31.4359 46.1416C25.4646 46.1416 22.4789 46.1416 20.4988 44.3295C20.2176 44.0722 19.9557 43.7916 19.7156 43.4903C18.0244 41.3688 18.0244 38.1699 18.0244 31.7721Z" fill="white"/>
<path d="M36.6596 28.0611C36.4701 26.5999 34.7956 24.239 31.7845 24.2389C28.2859 24.2389 26.8137 26.1803 26.515 27.151C26.049 28.4494 26.1422 31.1189 30.2431 31.4099C35.3692 31.774 37.4228 32.3802 37.1616 35.5235C36.9002 38.6666 34.0427 39.3458 31.7845 39.2728C29.5262 39.2001 25.8314 38.1607 25.688 35.365M31.4262 22.1924V24.2459M31.4262 39.254V41.3517" stroke="#0071E4" stroke-width="2.87389" stroke-linecap="round"/>
</svg>
