<svg width="27" height="16" viewBox="0 0 27 16" fill="none" xmlns="http://www.w3.org/2000/svg">
<path fill-rule="evenodd" clip-rule="evenodd" d="M26.3107 1.43934C26.8964 2.02513 26.8964 2.97487 26.3107 3.56066L15.3107 14.5607C14.7249 15.1464 13.7751 15.1464 13.1893 14.5607L7.68934 9.06066C7.10355 8.47487 7.10355 7.52513 7.68934 6.93934C8.27513 6.35355 9.22487 6.35355 9.81066 6.93934L14.25 11.3787L24.1893 1.43934C24.7751 0.853553 25.7249 0.853553 26.3107 1.43934Z" fill="#09B96D"/>
<path d="M20.5228 3.77279C21.2257 3.06985 21.2257 1.93015 20.5228 1.22721C19.8198 0.524264 18.6801 0.524264 17.9772 1.22721L8.25 10.9544L4.02279 6.72721C3.31985 6.02426 2.18015 6.02426 1.47721 6.72721C0.774264 7.43015 0.774264 8.56985 1.47721 9.27279L6.97721 14.7728C7.68015 15.4757 8.81985 15.4757 9.52279 14.7728L20.5228 3.77279Z" fill="#09B96D" stroke="white" stroke-width="0.6" stroke-linecap="round" stroke-linejoin="round"/>
</svg>
